<svg width="392" height="512" viewBox="0 0 392 512" fill="none" xmlns="http://www.w3.org/2000/svg">
<path fill-rule="evenodd" clip-rule="evenodd" d="M13.48 2.357C7.522 5.167 4.806 7.932 2.064 13.98C0.0289991 18.469 0.024001 19.074 0.012001 255.98L0 493.48L2.357 498.48C5.167 504.438 7.932 507.154 13.98 509.896C18.455 511.925 19.467 511.936 195.98 511.948L373.48 511.96L378.48 509.603C384.438 506.793 387.154 504.028 389.896 497.98C391.931 493.491 391.936 492.899 391.936 255.98C391.936 19.061 391.931 18.469 389.896 13.98C387.154 7.932 384.438 5.167 378.48 2.357L373.48 0H195.98H18.48L13.48 2.357ZM375.057 16.903L377.98 19.826V255.98V492.134L375.057 495.057L372.134 497.98H195.98H19.826L16.903 495.057L13.98 492.134V255.98V19.826L16.903 16.903L19.826 13.98H195.98H372.134L375.057 16.903ZM42.154 42.294C39.996 44.592 39.98 44.9 39.98 85.222V125.835L42.615 127.907L45.25 129.98H196.16H347.071L349.525 127.525L351.98 125.071V84.7V44.329L349.666 42.154L347.351 39.98H195.84H44.329L42.154 42.294ZM337.98 84.98V115.98H195.98H53.98V84.98V53.98H195.98H337.98V84.98ZM51.48 157.846C46.629 160.114 43.587 163.282 41.528 168.212C40.267 171.229 39.984 176.604 40.002 197.198C40.021 219.562 40.236 222.946 41.86 226.521C44.1 231.453 48.787 235.554 53.761 236.936C59.056 238.407 105.753 238.3 110.081 236.808C115.098 235.077 118.418 232.314 121.096 227.641C123.443 223.544 123.48 223.073 123.48 196.98C123.48 171.345 123.406 170.341 121.21 166.231C119.962 163.894 117.071 160.744 114.786 159.231L110.631 156.48L83.056 156.228C57.897 155.999 55.129 156.141 51.48 157.846ZM162.125 157.03C157.664 158.855 153.93 162.158 151.957 166.024C150.13 169.606 149.98 171.972 149.985 197.19C149.99 223.71 150.054 224.584 152.235 228.154C154.903 232.521 158.239 235.236 162.879 236.82C165.163 237.599 176.177 237.98 196.433 237.98H226.587L231.798 235.383C235.519 233.529 237.72 231.574 239.495 228.545C241.977 224.309 241.98 224.271 241.98 197.102C241.98 166.078 241.621 164.419 233.785 159.231L229.63 156.48L197.055 156.273C177.941 156.152 163.507 156.465 162.125 157.03ZM281.125 157.05C276.665 158.836 272.929 162.159 270.707 166.314C268.565 170.322 268.48 171.489 268.48 197.058V223.637L271.48 228.468C276.806 237.045 278.335 237.432 308.198 237.777C336.002 238.098 339.875 237.623 345.077 233.245C351.466 227.869 351.936 225.383 351.936 196.98C351.936 169.259 351.454 166.431 345.848 161.278C340.491 156.353 337.89 155.976 309.762 156.043C295.307 156.078 282.42 156.531 281.125 157.05ZM108.108 171.634C109.186 172.934 109.48 178.404 109.48 197.214C109.48 219.745 109.367 221.224 107.539 222.561C105.99 223.693 100.75 223.98 81.618 223.98C60.707 223.98 57.403 223.768 55.809 222.325C54.135 220.81 53.98 218.658 53.98 196.896C53.98 176.617 54.211 172.892 55.551 171.551C56.896 170.207 60.711 169.98 81.929 169.98C103.784 169.98 106.898 170.177 108.108 171.634ZM226.78 171.18C227.649 172.049 227.98 179.217 227.98 197.145C227.98 220.606 227.878 221.964 226.046 222.945C223.427 224.346 168.533 224.346 165.914 222.945C164.082 221.964 163.98 220.606 163.98 197.145C163.98 179.217 164.311 172.049 165.18 171.18C166.894 169.466 225.066 169.466 226.78 171.18ZM336.151 171.635C337.824 173.149 337.98 175.294 337.98 196.806C337.98 217.285 337.766 220.559 336.325 222.151C334.809 223.827 332.646 223.98 310.516 223.98C291.234 223.98 285.971 223.694 284.421 222.561C282.593 221.224 282.48 219.745 282.48 197.214C282.48 178.404 282.774 172.934 283.852 171.634C285.061 170.178 288.158 169.98 309.774 169.98C331.213 169.98 334.554 170.19 336.151 171.635ZM51.48 274.839C46.626 277.117 43.586 280.285 41.528 285.212C40.267 288.229 39.984 293.604 40.002 314.198C40.026 342.355 40.509 344.881 46.883 350.245C52.247 354.758 55.434 355.15 83.98 354.802C109.736 354.489 110.586 354.414 114.239 352.143C116.306 350.858 119.231 347.708 120.739 345.143L123.48 340.48V313.98V287.48L120.739 282.817C119.231 280.252 116.306 277.102 114.239 275.817C110.567 273.534 109.841 273.474 82.98 273.221C57.846 272.985 55.136 273.124 51.48 274.839ZM162.894 273.91C158.417 275.311 154.982 278.121 152.439 282.46C149.99 286.638 149.98 286.767 149.98 313.858C149.98 344.883 150.339 346.542 158.177 351.729L162.334 354.48H195.907C229.355 354.48 229.494 354.471 233.239 352.143C235.306 350.858 238.119 347.893 239.489 345.555C241.979 341.306 241.98 341.296 241.98 313.98C241.98 286.664 241.979 286.654 239.489 282.405C238.119 280.067 235.306 277.102 233.239 275.817C229.522 273.506 229.12 273.478 197.48 273.29C179.88 273.186 164.316 273.464 162.894 273.91ZM281.771 273.968C277.31 275.313 273.071 278.894 270.707 283.314L268.48 287.48V372.48V457.48L270.75 461.729C271.998 464.066 274.889 467.216 277.174 468.729L281.328 471.48L307.904 471.795C325.104 471.999 335.787 471.725 338.185 471.018C343.189 469.544 347.879 465.412 350.1 460.521C351.835 456.703 351.936 451.84 351.936 372.48C351.936 292.925 351.838 288.268 350.09 284.48C347.856 279.639 344.69 276.592 339.748 274.528C336.71 273.258 331.413 272.995 310.262 273.066C296.082 273.113 283.261 273.519 281.771 273.968ZM107.539 288.399C109.368 289.737 109.48 291.217 109.48 313.98C109.48 336.743 109.368 338.223 107.539 339.561C105.99 340.693 100.75 340.98 81.618 340.98C60.707 340.98 57.403 340.768 55.809 339.325C54.136 337.811 53.98 335.666 53.98 314.154C53.98 293.675 54.194 290.401 55.635 288.809C57.151 287.133 59.314 286.98 81.444 286.98C100.726 286.98 105.989 287.266 107.539 288.399ZM226.046 288.015C227.879 288.996 227.98 290.356 227.98 313.98C227.98 337.604 227.879 338.964 226.046 339.945C224.844 340.588 213.459 340.98 195.98 340.98C178.501 340.98 167.116 340.588 165.914 339.945C164.081 338.964 163.98 337.604 163.98 313.995C163.98 291.321 164.137 288.988 165.73 288.06C168.118 286.669 223.454 286.628 226.046 288.015ZM336.151 288.635C337.895 290.213 337.98 294.126 337.98 372.48C337.98 451.153 337.901 454.742 336.132 456.343C334.49 457.828 331.497 457.986 309.411 457.748L284.538 457.48L283.264 454.98C282.257 453.004 282.042 435.434 282.235 371.149C282.474 291.943 282.531 289.781 284.421 288.399C285.97 287.267 291.212 286.98 310.342 286.98C331.253 286.98 334.557 287.192 336.151 288.635ZM52.635 391.439C47.684 393.204 44.182 396.47 41.87 401.48C40.228 405.038 40.024 408.3 40.024 430.98C40.024 459.383 40.494 461.869 46.883 467.245C52.226 471.74 55.441 472.134 84.056 471.795L110.632 471.48L114.786 468.729C117.071 467.216 119.962 464.066 121.21 461.729C123.406 457.619 123.48 456.615 123.48 430.98V404.48L120.745 399.827C118.714 396.372 116.667 394.505 112.798 392.577C107.589 389.981 107.581 389.98 82.034 390.024C63.019 390.057 55.496 390.419 52.635 391.439ZM160.162 392.577C156.441 394.431 154.24 396.386 152.465 399.415C149.983 403.651 149.98 403.689 149.98 430.858C149.98 461.883 150.339 463.542 158.177 468.729L162.334 471.48H195.98H229.626L233.783 468.729C241.621 463.542 241.98 461.883 241.98 430.858C241.98 403.689 241.977 403.651 239.495 399.415C237.72 396.386 235.519 394.431 231.798 392.577L226.587 389.98H195.98H165.373L160.162 392.577ZM107.539 405.399C109.367 406.736 109.48 408.215 109.48 430.746C109.48 449.556 109.186 455.026 108.108 456.326C106.898 457.783 103.784 457.98 81.929 457.98C60.711 457.98 56.896 457.753 55.551 456.409C54.212 455.069 53.98 451.358 53.98 431.237C53.98 410.681 54.193 407.402 55.635 405.809C57.151 404.133 59.314 403.98 81.444 403.98C100.726 403.98 105.989 404.266 107.539 405.399ZM226.046 405.015C227.878 405.996 227.98 407.354 227.98 430.815C227.98 448.743 227.649 455.911 226.78 456.78C225.066 458.494 166.894 458.494 165.18 456.78C164.311 455.911 163.98 448.747 163.98 430.83C163.98 408.313 164.138 405.987 165.73 405.06C168.118 403.669 223.454 403.628 226.046 405.015Z" fill="#6E3AFF"/>
</svg>
