<svg width="298" height="217" viewBox="0 0 298 217" fill="none" xmlns="http://www.w3.org/2000/svg">
<g clip-path="url(#clip0_101_2)">
<path d="M173.585 38.2081C179.17 38.2081 183.697 33.6806 183.697 28.0955C183.697 22.5105 179.17 17.9829 173.585 17.9829C168 17.9829 163.472 22.5105 163.472 28.0955C163.472 33.6806 168 38.2081 173.585 38.2081Z" fill="#F2F2F2"/>
<path d="M230.435 20.9519C230.106 20.7322 229.772 20.5239 229.443 20.3118C219.918 14.2201 209.709 9.2712 199.026 5.56746L196.549 39.7374H180.847V0.579456C179.858 0.374937 178.862 0.18178 177.866 -1.52588e-05V39.7374H159.205C148.933 39.7374 139.081 35.6565 131.817 28.3925C124.553 21.1286 120.472 11.2765 120.472 1.00369C119.472 1.21957 118.48 1.45057 117.487 1.69675V39.7374H102.288L99.9289 7.15438C88.951 11.3646 78.5291 16.9012 68.895 23.6409C68.7283 23.7546 68.5617 23.872 68.3988 23.9856C67.5618 24.5726 66.7362 25.171 65.9143 25.777V156.135H110.708L109.916 145.171L105.561 84.9702H193.273L188.918 145.171L188.126 156.135H232.423V22.2699C231.764 21.823 231.102 21.3836 230.435 20.9519ZM117.487 75.0283H104.841L102.504 42.7218H117.487V75.0283ZM177.866 75.0283H156.626V74.3882C156.626 74.0806 156.566 73.7759 156.448 73.4917C156.33 73.2074 156.157 72.9492 155.939 72.7318C155.722 72.5144 155.463 72.3421 155.179 72.2247C154.894 72.1073 154.59 72.0471 154.282 72.0476H145.048C144.741 72.0475 144.436 72.108 144.152 72.2256C143.868 72.3432 143.61 72.5156 143.393 72.7329C143.176 72.9503 143.003 73.2084 142.886 73.4924C142.768 73.7764 142.707 74.0808 142.708 74.3882V75.0283H120.472V42.7218H177.866V75.0283ZM180.847 75.0283V42.7218H196.333L193.997 75.0283H180.847Z" fill="#3F3D56"/>
<path d="M0 164.483C3.29021 168.382 6.84894 172.045 10.6502 175.448L287.35 175.826C291.151 172.424 294.71 168.76 298 164.862L0 164.483Z" fill="#3F3D56"/>
<path d="M187.639 129.374V161.834C187.639 162.247 187.804 162.644 188.096 162.937C188.389 163.229 188.785 163.394 189.199 163.394H237.301C237.714 163.394 238.111 163.229 238.403 162.937C238.696 162.644 238.86 162.247 238.861 161.834V129.374C238.86 128.961 238.695 128.565 238.403 128.273C238.11 127.981 237.714 127.817 237.301 127.816H189.199C188.786 127.817 188.39 127.981 188.097 128.273C187.805 128.565 187.64 128.961 187.639 129.374Z" fill="#3F3D56"/>
<path d="M188.767 129.778V161.433C188.768 161.654 188.856 161.866 189.012 162.022C189.168 162.179 189.38 162.267 189.601 162.267H236.9C237.121 162.267 237.333 162.179 237.49 162.022C237.646 161.866 237.734 161.654 237.734 161.433V129.778C237.734 129.557 237.646 129.345 237.49 129.188C237.334 129.031 237.122 128.943 236.9 128.943H189.601C189.38 128.943 189.168 129.031 189.012 129.188C188.855 129.345 188.768 129.557 188.767 129.778Z" fill="#6C63FF"/>
<path d="M186.633 168.164C186.721 168.275 186.833 168.364 186.961 168.425C187.088 168.486 187.228 168.517 187.369 168.516H238.875C239.015 168.516 239.154 168.485 239.282 168.424C239.409 168.363 239.521 168.275 239.609 168.166C239.698 168.056 239.761 167.928 239.795 167.791C239.828 167.655 239.83 167.512 239.801 167.374L239.001 163.576C238.968 163.422 238.897 163.277 238.794 163.157C238.691 163.037 238.559 162.944 238.411 162.888C238.304 162.846 238.19 162.824 238.075 162.825H188.165C188.05 162.824 187.936 162.846 187.829 162.888C187.681 162.944 187.55 163.037 187.446 163.157C187.343 163.277 187.272 163.422 187.239 163.576L186.439 167.374C186.411 167.512 186.414 167.654 186.447 167.791C186.481 167.928 186.544 168.055 186.633 168.164Z" fill="#2F2E41"/>
<path d="M236.308 164.46H237.524C237.627 164.46 237.709 164.378 237.709 164.275V163.694C237.709 163.591 237.627 163.509 237.524 163.509H236.308C236.206 163.509 236.123 163.591 236.123 163.694V164.275C236.123 164.378 236.206 164.46 236.308 164.46Z" fill="#3F3D56"/>
<path d="M233.135 164.46H234.352C234.454 164.46 234.536 164.378 234.536 164.275V163.694C234.536 163.591 234.454 163.509 234.352 163.509H233.135C233.033 163.509 232.951 163.591 232.951 163.694V164.275C232.951 164.378 233.033 164.46 233.135 164.46Z" fill="#3F3D56"/>
<path d="M229.963 164.46H231.179C231.281 164.46 231.364 164.378 231.364 164.275V163.694C231.364 163.591 231.281 163.509 231.179 163.509H229.963C229.861 163.509 229.778 163.591 229.778 163.694V164.275C229.778 164.378 229.861 164.46 229.963 164.46Z" fill="#3F3D56"/>
<path d="M226.79 164.46H228.006C228.108 164.46 228.191 164.378 228.191 164.275V163.694C228.191 163.591 228.108 163.509 228.006 163.509H226.79C226.688 163.509 226.605 163.591 226.605 163.694V164.275C226.605 164.378 226.688 164.46 226.79 164.46Z" fill="#3F3D56"/>
<path d="M223.617 164.46H224.834C224.936 164.46 225.019 164.378 225.019 164.275V163.694C225.019 163.591 224.936 163.509 224.834 163.509H223.617C223.515 163.509 223.433 163.591 223.433 163.694V164.275C223.433 164.378 223.515 164.46 223.617 164.46Z" fill="#3F3D56"/>
<path d="M220.445 164.46H221.661C221.763 164.46 221.846 164.378 221.846 164.275V163.694C221.846 163.591 221.763 163.509 221.661 163.509H220.445C220.343 163.509 220.26 163.591 220.26 163.694V164.275C220.26 164.378 220.343 164.46 220.445 164.46Z" fill="#3F3D56"/>
<path d="M217.272 164.46H218.488C218.59 164.46 218.673 164.378 218.673 164.275V163.694C218.673 163.591 218.59 163.509 218.488 163.509H217.272C217.17 163.509 217.087 163.591 217.087 163.694V164.275C217.087 164.378 217.17 164.46 217.272 164.46Z" fill="#3F3D56"/>
<path d="M214.099 164.46H215.316C215.418 164.46 215.5 164.378 215.5 164.275V163.694C215.5 163.591 215.418 163.509 215.316 163.509H214.099C213.997 163.509 213.914 163.591 213.914 163.694V164.275C213.914 164.378 213.997 164.46 214.099 164.46Z" fill="#3F3D56"/>
<path d="M210.927 164.46H212.143C212.245 164.46 212.328 164.378 212.328 164.275V163.694C212.328 163.591 212.245 163.509 212.143 163.509H210.927C210.825 163.509 210.742 163.591 210.742 163.694V164.275C210.742 164.378 210.825 164.46 210.927 164.46Z" fill="#3F3D56"/>
<path d="M207.754 164.46H208.97C209.072 164.46 209.155 164.378 209.155 164.275V163.694C209.155 163.591 209.072 163.509 208.97 163.509H207.754C207.652 163.509 207.569 163.591 207.569 163.694V164.275C207.569 164.378 207.652 164.46 207.754 164.46Z" fill="#3F3D56"/>
<path d="M204.581 164.46H205.797C205.9 164.46 205.982 164.378 205.982 164.275V163.694C205.982 163.591 205.9 163.509 205.797 163.509H204.581C204.479 163.509 204.396 163.591 204.396 163.694V164.275C204.396 164.378 204.479 164.46 204.581 164.46Z" fill="#3F3D56"/>
<path d="M201.409 164.46H202.625C202.727 164.46 202.81 164.378 202.81 164.275V163.694C202.81 163.591 202.727 163.509 202.625 163.509H201.409C201.306 163.509 201.224 163.591 201.224 163.694V164.275C201.224 164.378 201.306 164.46 201.409 164.46Z" fill="#3F3D56"/>
<path d="M198.236 164.46H199.452C199.554 164.46 199.637 164.378 199.637 164.275V163.694C199.637 163.591 199.554 163.509 199.452 163.509H198.236C198.134 163.509 198.051 163.591 198.051 163.694V164.275C198.051 164.378 198.134 164.46 198.236 164.46Z" fill="#3F3D56"/>
<path d="M195.063 164.46H196.279C196.382 164.46 196.464 164.378 196.464 164.275V163.694C196.464 163.591 196.382 163.509 196.279 163.509H195.063C194.961 163.509 194.878 163.591 194.878 163.694V164.275C194.878 164.378 194.961 164.46 195.063 164.46Z" fill="#3F3D56"/>
<path d="M191.89 164.46H193.107C193.209 164.46 193.291 164.378 193.291 164.275V163.694C193.291 163.591 193.209 163.509 193.107 163.509H191.89C191.788 163.509 191.705 163.591 191.705 163.694V164.275C191.705 164.378 191.788 164.46 191.89 164.46Z" fill="#3F3D56"/>
<path d="M188.718 164.46H189.934C190.036 164.46 190.119 164.378 190.119 164.275V163.694C190.119 163.591 190.036 163.509 189.934 163.509H188.718C188.616 163.509 188.533 163.591 188.533 163.694V164.275C188.533 164.378 188.616 164.46 188.718 164.46Z" fill="#3F3D56"/>
<path d="M236.345 166.047H237.562C237.664 166.047 237.747 165.964 237.747 165.862V165.28C237.747 165.178 237.664 165.095 237.562 165.095H236.345C236.243 165.095 236.161 165.178 236.161 165.28V165.862C236.161 165.964 236.243 166.047 236.345 166.047Z" fill="#3F3D56"/>
<path d="M233.173 166.047H234.389C234.491 166.047 234.574 165.964 234.574 165.862V165.28C234.574 165.178 234.491 165.095 234.389 165.095H233.173C233.071 165.095 232.988 165.178 232.988 165.28V165.862C232.988 165.964 233.071 166.047 233.173 166.047Z" fill="#3F3D56"/>
<path d="M230 166.047H231.216C231.319 166.047 231.401 165.964 231.401 165.862V165.28C231.401 165.178 231.319 165.095 231.216 165.095H230C229.898 165.095 229.815 165.178 229.815 165.28V165.862C229.815 165.964 229.898 166.047 230 166.047Z" fill="#3F3D56"/>
<path d="M226.827 166.047H228.044C228.146 166.047 228.229 165.964 228.229 165.862V165.28C228.229 165.178 228.146 165.095 228.044 165.095H226.827C226.725 165.095 226.643 165.178 226.643 165.28V165.862C226.643 165.964 226.725 166.047 226.827 166.047Z" fill="#3F3D56"/>
<path d="M223.655 166.047H224.871C224.973 166.047 225.056 165.964 225.056 165.862V165.28C225.056 165.178 224.973 165.095 224.871 165.095H223.655C223.553 165.095 223.47 165.178 223.47 165.28V165.862C223.47 165.964 223.553 166.047 223.655 166.047Z" fill="#3F3D56"/>
<path d="M220.482 166.047H221.699C221.801 166.047 221.883 165.964 221.883 165.862V165.28C221.883 165.178 221.801 165.095 221.699 165.095H220.482C220.38 165.095 220.297 165.178 220.297 165.28V165.862C220.297 165.964 220.38 166.047 220.482 166.047Z" fill="#3F3D56"/>
<path d="M217.309 166.047H218.526C218.628 166.047 218.711 165.964 218.711 165.862V165.28C218.711 165.178 218.628 165.095 218.526 165.095H217.309C217.207 165.095 217.125 165.178 217.125 165.28V165.862C217.125 165.964 217.207 166.047 217.309 166.047Z" fill="#3F3D56"/>
<path d="M214.137 166.047H215.353C215.455 166.047 215.538 165.964 215.538 165.862V165.28C215.538 165.178 215.455 165.095 215.353 165.095H214.137C214.035 165.095 213.952 165.178 213.952 165.28V165.862C213.952 165.964 214.035 166.047 214.137 166.047Z" fill="#3F3D56"/>
<path d="M210.964 166.047H212.18C212.282 166.047 212.365 165.964 212.365 165.862V165.28C212.365 165.178 212.282 165.095 212.18 165.095H210.964C210.862 165.095 210.779 165.178 210.779 165.28V165.862C210.779 165.964 210.862 166.047 210.964 166.047Z" fill="#3F3D56"/>
<path d="M207.791 166.047H209.008C209.11 166.047 209.193 165.964 209.193 165.862V165.28C209.193 165.178 209.11 165.095 209.008 165.095H207.791C207.689 165.095 207.607 165.178 207.607 165.28V165.862C207.607 165.964 207.689 166.047 207.791 166.047Z" fill="#3F3D56"/>
<path d="M204.619 166.047H205.835C205.937 166.047 206.02 165.964 206.02 165.862V165.28C206.02 165.178 205.937 165.095 205.835 165.095H204.619C204.517 165.095 204.434 165.178 204.434 165.28V165.862C204.434 165.964 204.517 166.047 204.619 166.047Z" fill="#3F3D56"/>
<path d="M201.446 166.047H202.662C202.764 166.047 202.847 165.964 202.847 165.862V165.28C202.847 165.178 202.764 165.095 202.662 165.095H201.446C201.344 165.095 201.261 165.178 201.261 165.28V165.862C201.261 165.964 201.344 166.047 201.446 166.047Z" fill="#3F3D56"/>
<path d="M198.273 166.047H199.49C199.592 166.047 199.675 165.964 199.675 165.862V165.28C199.675 165.178 199.592 165.095 199.49 165.095H198.273C198.171 165.095 198.089 165.178 198.089 165.28V165.862C198.089 165.964 198.171 166.047 198.273 166.047Z" fill="#3F3D56"/>
<path d="M195.101 166.047H196.317C196.419 166.047 196.502 165.964 196.502 165.862V165.28C196.502 165.178 196.419 165.095 196.317 165.095H195.101C194.998 165.095 194.916 165.178 194.916 165.28V165.862C194.916 165.964 194.998 166.047 195.101 166.047Z" fill="#3F3D56"/>
<path d="M191.928 166.047H193.144C193.246 166.047 193.329 165.964 193.329 165.862V165.28C193.329 165.178 193.246 165.095 193.144 165.095H191.928C191.826 165.095 191.743 165.178 191.743 165.28V165.862C191.743 165.964 191.826 166.047 191.928 166.047Z" fill="#3F3D56"/>
<path d="M188.755 166.047H189.971C190.073 166.047 190.156 165.964 190.156 165.862V165.28C190.156 165.178 190.073 165.095 189.971 165.095H188.755C188.653 165.095 188.57 165.178 188.57 165.28V165.862C188.57 165.964 188.653 166.047 188.755 166.047Z" fill="#3F3D56"/>
<path d="M210.012 167.95H222.333C222.435 167.95 222.518 167.867 222.518 167.765V167.183C222.518 167.081 222.435 166.998 222.333 166.998H210.012C209.91 166.998 209.827 167.081 209.827 167.183V167.765C209.827 167.867 209.91 167.95 210.012 167.95Z" fill="#3F3D56"/>
<path d="M196.958 135.868H195.881C195.555 135.868 195.29 136.133 195.29 136.459C195.29 136.786 195.555 137.051 195.881 137.051H196.958C197.285 137.051 197.549 136.786 197.549 136.459C197.549 136.133 197.285 135.868 196.958 135.868Z" fill="white"/>
<path d="M209.276 135.868H208.199C207.873 135.868 207.608 136.133 207.608 136.459C207.608 136.786 207.873 137.051 208.199 137.051H209.276C209.603 137.051 209.867 136.786 209.867 136.459C209.867 136.133 209.603 135.868 209.276 135.868Z" fill="white"/>
<path d="M212.766 135.868H211.689C211.362 135.868 211.098 136.133 211.098 136.459C211.098 136.786 211.362 137.051 211.689 137.051H212.766C213.092 137.051 213.357 136.786 213.357 136.459C213.357 136.133 213.092 135.868 212.766 135.868Z" fill="white"/>
<path d="M205.926 135.769H199.232C198.905 135.769 198.641 136.034 198.641 136.361C198.641 136.687 198.905 136.952 199.232 136.952H205.926C206.252 136.952 206.517 136.687 206.517 136.361C206.517 136.034 206.252 135.769 205.926 135.769Z" fill="white"/>
<path d="M222.349 135.769H215.655C215.329 135.769 215.064 136.034 215.064 136.361C215.064 136.687 215.329 136.952 215.655 136.952H222.349C222.676 136.952 222.94 136.687 222.94 136.361C222.94 136.034 222.676 135.769 222.349 135.769Z" fill="white"/>
<path d="M200.243 138.537H199.166C198.839 138.537 198.575 138.801 198.575 139.128C198.575 139.454 198.839 139.719 199.166 139.719H200.243C200.57 139.719 200.834 139.454 200.834 139.128C200.834 138.801 200.57 138.537 200.243 138.537Z" fill="white"/>
<path d="M212.561 138.537H211.484C211.157 138.537 210.893 138.801 210.893 139.128C210.893 139.454 211.157 139.719 211.484 139.719H212.561C212.887 139.719 213.152 139.454 213.152 139.128C213.152 138.801 212.887 138.537 212.561 138.537Z" fill="white"/>
<path d="M216.051 138.537H214.974C214.647 138.537 214.383 138.801 214.383 139.128C214.383 139.454 214.647 139.719 214.974 139.719H216.051C216.377 139.719 216.642 139.454 216.642 139.128C216.642 138.801 216.377 138.537 216.051 138.537Z" fill="white"/>
<path d="M209.21 138.438H202.516C202.19 138.438 201.925 138.703 201.925 139.029C201.925 139.356 202.19 139.621 202.516 139.621H209.21C209.537 139.621 209.802 139.356 209.802 139.029C209.802 138.703 209.537 138.438 209.21 138.438Z" fill="white"/>
<path d="M225.634 138.438H218.94C218.613 138.438 218.349 138.703 218.349 139.029C218.349 139.356 218.613 139.621 218.94 139.621H225.634C225.96 139.621 226.225 139.356 226.225 139.029C226.225 138.703 225.96 138.438 225.634 138.438Z" fill="white"/>
<path d="M203.528 141.206H202.451C202.124 141.206 201.86 141.47 201.86 141.797C201.86 142.123 202.124 142.388 202.451 142.388H203.528C203.854 142.388 204.119 142.123 204.119 141.797C204.119 141.47 203.854 141.206 203.528 141.206Z" fill="white"/>
<path d="M215.845 141.206H214.768C214.442 141.206 214.177 141.47 214.177 141.797C214.177 142.123 214.442 142.388 214.768 142.388H215.845C216.172 142.388 216.437 142.123 216.437 141.797C216.437 141.47 216.172 141.206 215.845 141.206Z" fill="white"/>
<path d="M219.336 141.206H218.259C217.932 141.206 217.667 141.47 217.667 141.797C217.667 142.123 217.932 142.388 218.259 142.388H219.336C219.662 142.388 219.927 142.123 219.927 141.797C219.927 141.47 219.662 141.206 219.336 141.206Z" fill="white"/>
<path d="M212.495 141.107H205.801C205.475 141.107 205.21 141.372 205.21 141.698C205.21 142.025 205.475 142.29 205.801 142.29H212.495C212.822 142.29 213.086 142.025 213.086 141.698C213.086 141.372 212.822 141.107 212.495 141.107Z" fill="white"/>
<path d="M228.919 141.107H222.225C221.898 141.107 221.634 141.372 221.634 141.698C221.634 142.025 221.898 142.29 222.225 142.29H228.919C229.245 142.29 229.51 142.025 229.51 141.698C229.51 141.372 229.245 141.107 228.919 141.107Z" fill="white"/>
<path d="M206.812 143.875H205.735C205.409 143.875 205.144 144.139 205.144 144.466C205.144 144.792 205.409 145.057 205.735 145.057H206.812C207.139 145.057 207.404 144.792 207.404 144.466C207.404 144.139 207.139 143.875 206.812 143.875Z" fill="white"/>
<path d="M219.13 143.875H218.053C217.727 143.875 217.462 144.139 217.462 144.466C217.462 144.792 217.727 145.057 218.053 145.057H219.13C219.457 145.057 219.721 144.792 219.721 144.466C219.721 144.139 219.457 143.875 219.13 143.875Z" fill="white"/>
<path d="M222.62 143.875H221.543C221.217 143.875 220.952 144.139 220.952 144.466C220.952 144.792 221.217 145.057 221.543 145.057H222.62C222.947 145.057 223.211 144.792 223.211 144.466C223.211 144.139 222.947 143.875 222.62 143.875Z" fill="white"/>
<path d="M215.78 143.776H209.086C208.759 143.776 208.495 144.041 208.495 144.367C208.495 144.694 208.759 144.958 209.086 144.958H215.78C216.106 144.958 216.371 144.694 216.371 144.367C216.371 144.041 216.106 143.776 215.78 143.776Z" fill="white"/>
<path d="M209.276 154.487H208.199C207.873 154.487 207.608 154.752 207.608 155.078C207.608 155.405 207.873 155.669 208.199 155.669H209.276C209.603 155.669 209.867 155.405 209.867 155.078C209.867 154.752 209.603 154.487 209.276 154.487Z" fill="white"/>
<path d="M212.766 154.487H211.689C211.362 154.487 211.098 154.752 211.098 155.078C211.098 155.405 211.362 155.669 211.689 155.669H212.766C213.092 155.669 213.357 155.405 213.357 155.078C213.357 154.752 213.092 154.487 212.766 154.487Z" fill="white"/>
<path d="M222.349 154.585H215.655C215.329 154.585 215.064 154.85 215.064 155.177C215.064 155.503 215.329 155.768 215.655 155.768H222.349C222.676 155.768 222.94 155.503 222.94 155.177C222.94 154.85 222.676 154.585 222.349 154.585Z" fill="white"/>
<path d="M196.958 154.487H195.881C195.555 154.487 195.29 154.752 195.29 155.078C195.29 155.405 195.555 155.669 195.881 155.669H196.958C197.285 155.669 197.549 155.405 197.549 155.078C197.549 154.752 197.285 154.487 196.958 154.487Z" fill="white"/>
<path d="M205.926 154.585H199.232C198.905 154.585 198.641 154.85 198.641 155.177C198.641 155.503 198.905 155.768 199.232 155.768H205.926C206.252 155.768 206.517 155.503 206.517 155.177C206.517 154.85 206.252 154.585 205.926 154.585Z" fill="white"/>
<path d="M200.243 151.818H199.166C198.839 151.818 198.575 152.083 198.575 152.409C198.575 152.736 198.839 153.001 199.166 153.001H200.243C200.57 153.001 200.834 152.736 200.834 152.409C200.834 152.083 200.57 151.818 200.243 151.818Z" fill="white"/>
<path d="M212.561 151.818H211.484C211.157 151.818 210.893 152.083 210.893 152.409C210.893 152.736 211.157 153.001 211.484 153.001H212.561C212.887 153.001 213.152 152.736 213.152 152.409C213.152 152.083 212.887 151.818 212.561 151.818Z" fill="white"/>
<path d="M216.051 151.818H214.974C214.647 151.818 214.383 152.083 214.383 152.409C214.383 152.736 214.647 153.001 214.974 153.001H216.051C216.377 153.001 216.642 152.736 216.642 152.409C216.642 152.083 216.377 151.818 216.051 151.818Z" fill="white"/>
<path d="M209.21 151.917H202.516C202.19 151.917 201.925 152.181 201.925 152.508C201.925 152.834 202.19 153.099 202.516 153.099H209.21C209.537 153.099 209.802 152.834 209.802 152.508C209.802 152.181 209.537 151.917 209.21 151.917Z" fill="white"/>
<path d="M203.528 149.149H202.451C202.124 149.149 201.86 149.414 201.86 149.741C201.86 150.067 202.124 150.332 202.451 150.332H203.528C203.854 150.332 204.119 150.067 204.119 149.741C204.119 149.414 203.854 149.149 203.528 149.149Z" fill="white"/>
<path d="M215.845 149.149H214.768C214.442 149.149 214.177 149.414 214.177 149.741C214.177 150.067 214.442 150.332 214.768 150.332H215.845C216.172 150.332 216.437 150.067 216.437 149.741C216.437 149.414 216.172 149.149 215.845 149.149Z" fill="white"/>
<path d="M219.336 149.149H218.259C217.932 149.149 217.667 149.414 217.667 149.741C217.667 150.067 217.932 150.332 218.259 150.332H219.336C219.662 150.332 219.927 150.067 219.927 149.741C219.927 149.414 219.662 149.149 219.336 149.149Z" fill="white"/>
<path d="M212.495 149.248H205.801C205.475 149.248 205.21 149.513 205.21 149.839C205.21 150.166 205.475 150.43 205.801 150.43H212.495C212.822 150.43 213.086 150.166 213.086 149.839C213.086 149.513 212.822 149.248 212.495 149.248Z" fill="white"/>
<path d="M206.812 146.48H205.735C205.409 146.48 205.144 146.745 205.144 147.072C205.144 147.398 205.409 147.663 205.735 147.663H206.812C207.139 147.663 207.404 147.398 207.404 147.072C207.404 146.745 207.139 146.48 206.812 146.48Z" fill="white"/>
<path d="M219.13 146.48H218.053C217.727 146.48 217.462 146.745 217.462 147.072C217.462 147.398 217.727 147.663 218.053 147.663H219.13C219.457 147.663 219.721 147.398 219.721 147.072C219.721 146.745 219.457 146.48 219.13 146.48Z" fill="white"/>
<path d="M222.62 146.48H221.543C221.217 146.48 220.952 146.745 220.952 147.072C220.952 147.398 221.217 147.663 221.543 147.663H222.62C222.947 147.663 223.211 147.398 223.211 147.072C223.211 146.745 222.947 146.48 222.62 146.48Z" fill="white"/>
<path d="M215.78 146.579H209.086C208.759 146.579 208.495 146.844 208.495 147.17C208.495 147.497 208.759 147.761 209.086 147.761H215.78C216.106 147.761 216.371 147.497 216.371 147.17C216.371 146.844 216.106 146.579 215.78 146.579Z" fill="white"/>
<path d="M191.232 185.765L186.176 177.773L202.046 165.122L208.597 157.865C209.448 156.922 210.531 156.219 211.739 155.826C212.947 155.433 214.237 155.364 215.479 155.626C216.722 155.888 217.875 156.471 218.821 157.318C219.768 158.164 220.476 159.245 220.875 160.451C221.465 162.238 221.338 164.184 220.52 165.88C219.703 167.575 218.259 168.886 216.493 169.537L206.134 173.353L191.232 185.765Z" fill="#FFB6B6"/>
<path d="M72.6005 127.817V166.661H99.813V127.817C99.8134 127.538 99.7243 127.266 99.5586 127.041C99.393 126.816 99.1596 126.65 98.8926 126.567C98.7668 126.526 98.635 126.505 98.5025 126.507H73.9148C73.7424 126.507 73.5716 126.54 73.4123 126.606C73.2529 126.672 73.1081 126.768 72.986 126.89C72.864 127.011 72.7671 127.156 72.701 127.315C72.6348 127.474 72.6007 127.645 72.6005 127.817ZM83.2204 141.164C83.2275 140.398 83.5367 139.666 84.0807 139.127C84.6247 138.588 85.3595 138.286 86.1253 138.286C86.8911 138.286 87.6259 138.588 88.17 139.127C88.714 139.666 89.0232 140.398 89.0303 141.164V145.671C89.0263 146.439 88.7186 147.174 88.1742 147.716C87.6298 148.257 86.8932 148.561 86.1253 148.561C85.3574 148.561 84.6208 148.257 84.0765 147.716C83.5321 147.174 83.2243 146.439 83.2204 145.671V141.164Z" fill="#2F2E41"/>
<path d="M72.5173 165.419V169.164C72.5179 169.358 72.595 169.544 72.7318 169.682C72.8687 169.819 73.0542 169.897 73.2483 169.899H99.1654C99.3597 169.898 99.5456 169.82 99.6826 169.683C99.8196 169.545 99.8964 169.359 99.8964 169.164V165.419H72.5173Z" fill="#3F3D56"/>
<path d="M29.7917 69.2945V140.217C29.7924 141.121 30.1517 141.988 30.7908 142.627C31.4299 143.266 32.2965 143.625 33.2003 143.626H138.3C139.204 143.625 140.071 143.266 140.71 142.627C141.349 141.988 141.708 141.121 141.709 140.217V69.2945C141.707 68.3915 141.347 67.5262 140.708 66.888C140.069 66.2498 139.204 65.8908 138.3 65.8897H33.2003C32.2973 65.8908 31.4315 66.2498 30.7926 66.888C30.1537 67.5262 29.7938 68.3915 29.7917 69.2945Z" fill="#3F3D56"/>
<path d="M32.2573 70.1769V139.342C32.2581 139.825 32.4503 140.288 32.7917 140.63C33.1332 140.971 33.5961 141.163 34.079 141.164H137.426C137.909 141.163 138.371 140.971 138.713 140.63C139.054 140.288 139.247 139.825 139.247 139.342V70.1769C139.247 69.6934 139.056 69.2297 138.714 68.8875C138.372 68.5452 137.909 68.3524 137.426 68.3514H34.079C33.5955 68.3524 33.1322 68.5452 32.7907 68.8875C32.4491 69.2297 32.2573 69.6934 32.2573 70.1769Z" fill="white"/>
<path d="M51.4366 169.645C51.5418 169.777 51.6755 169.884 51.8277 169.957C51.9799 170.029 52.1466 170.067 52.3153 170.066H113.8C113.968 170.066 114.134 170.028 114.286 169.956C114.438 169.883 114.571 169.778 114.677 169.647C114.783 169.517 114.859 169.364 114.898 169.201C114.938 169.037 114.94 168.867 114.906 168.702L113.951 164.169C113.912 163.984 113.827 163.812 113.704 163.668C113.581 163.525 113.424 163.414 113.247 163.347C113.119 163.297 112.983 163.271 112.845 163.271H53.2659C53.1286 163.271 52.9924 163.297 52.8645 163.347C52.6878 163.414 52.5308 163.525 52.4078 163.668C52.2847 163.812 52.1996 163.984 52.16 164.169L51.2056 168.702C51.1716 168.867 51.1748 169.037 51.2147 169.2C51.2547 169.363 51.3305 169.515 51.4366 169.645Z" fill="#2F2E41"/>
<path d="M134.072 77.8793H37.3707C37.2702 77.8771 37.1745 77.8356 37.1042 77.7637C37.0339 77.6919 36.9946 77.5953 36.9946 77.4948C36.9946 77.3942 37.0339 77.2977 37.1042 77.2258C37.1745 77.1539 37.2702 77.1124 37.3707 77.1102H134.072C134.172 77.1124 134.268 77.1539 134.338 77.2258C134.409 77.2977 134.448 77.3942 134.448 77.4948C134.448 77.5953 134.409 77.6919 134.338 77.7637C134.268 77.8356 134.172 77.8771 134.072 77.8793Z" fill="#3F3D56"/>
<path d="M43.9533 75.1467C45.1979 75.1467 46.2069 74.1153 46.2069 72.8429C46.2069 71.5705 45.1979 70.539 43.9533 70.539C42.7086 70.539 41.6996 71.5705 41.6996 72.8429C41.6996 74.1153 42.7086 75.1467 43.9533 75.1467Z" fill="#3F3D56"/>
<path d="M51.7386 75.1467C52.9833 75.1467 53.9923 74.1153 53.9923 72.8429C53.9923 71.5705 52.9833 70.539 51.7386 70.539C50.494 70.539 49.485 71.5705 49.485 72.8429C49.485 74.1153 50.494 75.1467 51.7386 75.1467Z" fill="#3F3D56"/>
<path d="M59.524 75.1467C60.7687 75.1467 61.7777 74.1153 61.7777 72.8429C61.7777 71.5705 60.7687 70.539 59.524 70.539C58.2794 70.539 57.2704 71.5705 57.2704 72.8429C57.2704 74.1153 58.2794 75.1467 59.524 75.1467Z" fill="#3F3D56"/>
<path d="M129.384 71.1086H123.854C123.745 71.1112 123.641 71.1564 123.564 71.2346C123.488 71.3128 123.445 71.4178 123.445 71.5271C123.445 71.6364 123.488 71.7415 123.564 71.8197C123.641 71.8979 123.745 71.9431 123.854 71.9456H129.384C129.494 71.9441 129.599 71.8993 129.676 71.821C129.753 71.7427 129.796 71.6371 129.796 71.5271C129.796 71.4171 129.753 71.3116 129.676 71.2333C129.599 71.1549 129.494 71.1102 129.384 71.1086Z" fill="#3F3D56"/>
<path d="M129.384 72.6805H123.854C123.745 72.6829 123.641 72.7281 123.564 72.8063C123.488 72.8845 123.445 72.9896 123.445 73.099C123.445 73.2084 123.488 73.3135 123.564 73.3917C123.641 73.47 123.745 73.5151 123.854 73.5175H129.384C129.494 73.5162 129.599 73.4715 129.676 73.3932C129.754 73.3148 129.797 73.2092 129.797 73.099C129.797 72.9889 129.754 72.8832 129.676 72.8049C129.599 72.7265 129.494 72.6818 129.384 72.6805Z" fill="#3F3D56"/>
<path d="M129.384 74.2522H123.854C123.745 74.2548 123.641 74.3 123.564 74.3782C123.488 74.4564 123.445 74.5614 123.445 74.6707C123.445 74.7801 123.488 74.8851 123.564 74.9633C123.641 75.0415 123.745 75.0867 123.854 75.0892H129.384C129.494 75.0877 129.599 75.0429 129.676 74.9646C129.753 74.8863 129.796 74.7807 129.796 74.6707C129.796 74.5608 129.753 74.4552 129.676 74.3769C129.599 74.2986 129.494 74.2538 129.384 74.2522Z" fill="#3F3D56"/>
<path d="M262.692 167.062C262.859 167.548 263.176 167.969 263.597 168.263C264.017 168.558 264.521 168.712 265.034 168.703L275.068 168.445C275.585 168.435 276.085 168.257 276.494 167.939C276.902 167.621 277.196 167.18 277.333 166.681L278.753 151.498C279.257 151.726 279.805 151.839 280.358 151.828C280.838 151.816 281.312 151.709 281.751 151.514C282.19 151.319 282.586 151.04 282.918 150.692C283.249 150.343 283.508 149.933 283.681 149.485C283.853 149.037 283.936 148.559 283.924 148.078C283.912 147.598 283.805 147.125 283.61 146.685C283.415 146.246 283.136 145.85 282.788 145.519C282.439 145.187 282.029 144.928 281.581 144.755C281.133 144.583 280.655 144.5 280.174 144.512C279.953 144.511 279.733 144.534 279.517 144.58C279.282 144.326 278.996 144.124 278.678 143.987C278.36 143.85 278.017 143.78 277.671 143.784L262.237 144.182C262.109 144.187 261.981 144.203 261.856 144.23C261.518 144.293 261.197 144.428 260.915 144.625C260.633 144.823 260.396 145.079 260.221 145.375C260.047 145.672 259.937 146.002 259.901 146.345C259.864 146.687 259.902 147.033 260.01 147.36L262.692 167.062ZM279.044 150.467L280.054 146.849C280.169 146.431 280.172 145.991 280.062 145.571C280.111 145.571 280.154 145.548 280.203 145.548C280.896 145.533 281.566 145.794 282.067 146.273C282.567 146.752 282.858 147.41 282.874 148.103C282.89 148.796 282.631 149.467 282.153 149.969C281.676 150.471 281.019 150.763 280.326 150.781C279.878 150.795 279.435 150.686 279.044 150.467Z" fill="#2F2E41"/>
<path d="M261.856 144.23C262.185 146.11 265.881 147.432 270.327 147.202C274.414 147.014 277.757 145.578 278.369 143.877C278.142 143.81 277.907 143.779 277.67 143.784L262.236 144.183C262.108 144.187 261.981 144.203 261.856 144.23Z" fill="#3F3D56"/>
<path d="M271.142 158.719C271.162 158.714 271.181 158.706 271.199 158.694L273.378 157.268C273.404 157.251 273.426 157.227 273.441 157.2C273.456 157.172 273.464 157.141 273.464 157.11C273.464 157.078 273.456 157.047 273.441 157.02C273.426 156.992 273.404 156.969 273.378 156.951L271.113 155.468C271.092 155.454 271.069 155.445 271.044 155.44C271.02 155.435 270.995 155.435 270.97 155.44C270.946 155.445 270.923 155.455 270.902 155.469C270.882 155.483 270.864 155.501 270.85 155.522C270.837 155.543 270.827 155.566 270.823 155.591C270.818 155.615 270.818 155.64 270.823 155.665C270.829 155.689 270.838 155.712 270.853 155.733C270.867 155.753 270.885 155.771 270.906 155.785L272.928 157.109L270.991 158.377C270.954 158.402 270.926 158.439 270.914 158.482C270.901 158.525 270.904 158.571 270.922 158.612C270.94 158.653 270.972 158.686 271.012 158.706C271.052 158.726 271.098 158.73 271.142 158.719Z" fill="#6C63FF"/>
<path d="M267.7 158.878C267.736 158.869 267.769 158.849 267.794 158.821C267.82 158.793 267.836 158.758 267.841 158.72C267.846 158.683 267.84 158.645 267.823 158.611C267.807 158.577 267.78 158.549 267.748 158.53L265.739 157.379L267.68 155.937C267.7 155.922 267.717 155.904 267.73 155.882C267.743 155.861 267.751 155.837 267.755 155.813C267.758 155.788 267.757 155.763 267.751 155.739C267.745 155.715 267.734 155.692 267.719 155.672C267.705 155.652 267.686 155.635 267.665 155.623C267.643 155.61 267.62 155.601 267.595 155.598C267.57 155.594 267.545 155.595 267.521 155.602C267.497 155.608 267.475 155.618 267.455 155.633L265.281 157.248C265.256 157.266 265.236 157.291 265.222 157.32C265.209 157.348 265.203 157.379 265.205 157.411C265.207 157.442 265.216 157.473 265.233 157.499C265.25 157.526 265.273 157.548 265.3 157.564L267.559 158.859C267.602 158.883 267.652 158.89 267.7 158.878Z" fill="#6C63FF"/>
<path d="M270.925 159.969C270.943 159.965 270.961 159.957 270.977 159.948C270.998 159.935 271.016 159.918 271.031 159.898C271.046 159.877 271.056 159.855 271.062 159.831C271.068 159.806 271.069 159.781 271.066 159.757C271.062 159.732 271.053 159.708 271.04 159.687L267.951 154.609C267.925 154.566 267.883 154.535 267.834 154.524C267.785 154.512 267.734 154.52 267.691 154.546C267.648 154.572 267.617 154.614 267.606 154.663C267.594 154.712 267.602 154.763 267.628 154.806L270.717 159.884C270.738 159.919 270.769 159.946 270.807 159.961C270.844 159.976 270.886 159.979 270.925 159.969Z" fill="#6C63FF"/>
<path d="M97.2754 98.7856H80.5385C79.8558 98.7856 79.3023 99.3391 79.3023 100.022V101.657C79.3023 102.34 79.8558 102.893 80.5385 102.893H97.2754C97.9581 102.893 98.5116 102.34 98.5116 101.657V100.022C98.5116 99.3391 97.9581 98.7856 97.2754 98.7856Z" fill="#6C63FF"/>
<path d="M107.031 107.001H70.7828C70.1 107.001 69.5465 107.554 69.5465 108.237V109.872C69.5465 110.555 70.1 111.109 70.7828 111.109H107.031C107.714 111.109 108.267 110.555 108.267 109.872V108.237C108.267 107.554 107.714 107.001 107.031 107.001Z" fill="#E6E6E6"/>
<path d="M107.031 115.216H70.7828C70.1 115.216 69.5465 115.77 69.5465 116.453V118.088C69.5465 118.771 70.1 119.324 70.7828 119.324H107.031C107.714 119.324 108.267 118.771 108.267 118.088V116.453C108.267 115.77 107.714 115.216 107.031 115.216Z" fill="#E6E6E6"/>
<path d="M110.104 142.726L110.186 142.986L110.19 142.994L112.662 150.508L115.505 159.166L120.853 175.437L120.905 177.965V177.973L121.303 198.306L120.201 201.062L121.441 205.582C121.441 205.582 120.871 198.75 117.812 202.673C116.079 204.903 114.053 207.184 112.389 209.323C114.813 210.303 117.276 211.191 119.778 211.984C120.318 212.157 120.862 212.321 121.406 212.485C121.523 212.52 121.64 212.554 121.756 212.589C130.049 215.041 138.622 216.419 147.265 216.689C147.714 216.702 148.155 216.711 148.583 216.719C148.734 216.724 148.881 216.728 149.028 216.728C149.512 216.732 149.991 216.737 150.475 216.737C151.451 216.737 152.424 216.722 153.391 216.693C160.555 216.492 167.676 215.528 174.635 213.82C174.588 210.947 174.458 207.59 174.272 204.004C174.186 202.246 172.246 200.34 172.129 198.5C172.047 197.117 173.789 195.817 173.698 194.412C173.11 185.767 172.376 189.086 171.831 182.964C171.775 182.363 171.723 181.788 171.676 181.24C171.326 177.308 171.084 174.85 171.084 174.85L173.408 160.199L177.059 137.196L176.778 136.734L176.463 136.578L157.206 127.047L156.161 124.368C155.856 123.597 155.328 122.934 154.643 122.465C153.959 121.996 153.15 121.743 152.32 121.737L139.635 121.685C138.976 121.682 138.327 121.836 137.74 122.135C137.153 122.433 136.646 122.867 136.26 123.401L132.826 128.158L110.104 142.726Z" fill="#3F3D56"/>
<path d="M123.778 171.817L120.905 177.965L118.944 182.164L115.569 199.831L113.88 201.624L112.433 195.277L97.284 198.64C96.7871 195.879 97.151 198.734 96.8442 195.705C96.9306 195.618 97.0213 195.532 97.1121 195.446C97.354 195.221 97.5571 195.009 97.5528 194.806C97.38 184.359 97.8984 166.58 102.228 155.809C102.906 154.05 103.8 152.383 104.889 150.845C104.975 150.728 105.058 150.611 105.14 150.495C107.136 147.699 108.397 144.947 110.186 142.99V142.986C110.197 142.977 110.207 142.967 110.216 142.955C110.223 142.952 110.229 142.948 110.234 142.942L122.521 136.427L123.048 151.238L123.424 161.884L123.778 171.817Z" fill="#3F3D56"/>
<path d="M168.085 173.563L171.674 181.242L172.927 183.916L176.3 201.581L177.984 203.37L179.435 197.024L180.116 196.884L192.41 194.338L195.993 205.718C196.8 204.372 197.119 202.789 196.893 201.236C196.668 199.683 195.914 198.255 194.758 197.194C194.513 196.973 194.309 196.757 194.315 196.553C194.519 184.266 193.767 161.829 186.98 152.594C184.824 149.664 183.531 146.745 181.649 144.706C181.643 144.7 181.643 144.694 181.637 144.694L177.058 137.196L176.778 136.736L176.463 136.578L168.085 173.563Z" fill="#3F3D56"/>
<path d="M146.344 118.075C155.664 118.075 163.22 110.52 163.22 101.199C163.22 91.8791 155.664 84.3235 146.344 84.3235C137.023 84.3235 129.468 91.8791 129.468 101.199C129.468 110.52 137.023 118.075 146.344 118.075Z" fill="#FFB6B6"/>
<path d="M169.154 89.4116C169.023 89.2719 168.865 89.1599 168.69 89.0825C168.515 89.0051 168.326 88.9637 168.135 88.9609L168.389 88.2565C168.471 88.0346 168.494 87.7947 168.453 87.5613C168.413 87.3279 168.311 87.1095 168.159 86.9284C168.006 86.7472 167.808 86.6099 167.585 86.5305C167.362 86.4511 167.121 86.4324 166.889 86.4764L165.965 86.6544L166.052 86.0371C166.085 85.8071 166.058 85.5725 165.973 85.3562C165.889 85.1399 165.749 84.9493 165.568 84.8034C165.387 84.6574 165.172 84.561 164.942 84.5236C164.713 84.4863 164.478 84.5092 164.26 84.5903C164.062 84.6682 163.849 84.7009 163.637 84.6858C163.425 84.6708 163.218 84.6083 163.033 84.5032C162.847 84.4012 162.686 84.26 162.56 84.0892C162.435 83.9185 162.348 83.7224 162.306 83.5147L161.984 81.9618L161.95 81.8785C160.382 79.2652 157.367 77.3639 153.678 76.667C150.395 76.0421 147.028 76.3603 143.782 76.6595C142.494 76.7807 141.04 76.917 139.828 77.6593C138.798 78.2956 137.927 79.5682 138.105 80.8521C134.904 79.8712 131.473 81.8293 129.772 84.2986C127.757 87.2377 127.428 90.919 127.375 93.7974C127.231 100.607 128.636 106.178 131.541 110.36C131.753 110.663 131.806 111.295 132.226 111.507L132.139 111.367C132.609 111.602 133.086 111.981 132.908 112.386C132.397 113.552 135.794 116.132 138.188 116.984C142.555 118.54 148.361 118.408 152.444 117.847L152.588 116.882C154.061 116.681 155.099 116.298 155.39 115.7C155.905 115.261 156.345 114.867 156.727 114.503L156.731 114.499C156.739 114.492 156.754 114.48 156.761 114.473C158.606 112.704 159.034 111.697 159.227 110.163C159.412 108.659 159.083 107.133 158.746 105.758C165.843 106.856 155.951 98.1984 162.564 96.5244C162.639 96.501 162.717 96.482 162.795 96.4676C162.988 96.4221 163.181 96.3767 163.366 96.3236C164.261 96.0808 165.118 95.715 165.912 95.2367C167.76 94.1118 168.37 92.6196 169.324 90.938C169.462 90.6985 169.519 90.4214 169.489 90.1469C169.458 89.8724 169.341 89.6148 169.154 89.4116Z" fill="#2F2E41"/>
<path d="M206.031 174.765C206.028 175.427 206.02 176.355 205.99 177.503C205.986 177.662 205.982 177.825 205.978 177.991C205.929 180.101 205.88 181.87 205.8 183.835C205.797 183.972 205.793 184.104 205.785 184.241C205.679 186.983 205.513 190.175 205.225 195.232C204.691 204.571 203.759 196.516 202.823 199.792C202.778 199.955 202.729 200.148 202.683 200.375C202.542 201.199 202.303 202.004 201.971 202.772C201.475 203.068 200.964 203.352 200.46 203.636C199.025 204.435 197.567 205.204 196.097 205.935C195.271 206.344 194.442 206.745 193.609 207.132C193.476 207.192 193.347 207.253 193.219 207.31C188.952 209.283 184.554 210.961 180.057 212.332C179.179 212.597 178.304 212.854 177.418 213.093C176.494 213.351 175.569 213.593 174.634 213.82C167.675 215.529 160.553 216.492 153.39 216.695C152.425 216.725 151.451 216.736 150.474 216.736C149.989 216.736 149.512 216.733 149.027 216.729C148.88 216.729 148.732 216.725 148.584 216.721C148.156 216.71 147.713 216.702 147.266 216.691C138.623 216.421 130.05 215.043 121.758 212.589L121.406 212.487C120.86 212.32 120.319 212.158 119.777 211.983C117.278 211.192 114.814 210.305 112.388 209.325C110.536 208.578 108.705 207.778 106.896 206.923C106.88 206.919 106.864 206.911 106.851 206.901C106.472 206.726 106.09 206.545 105.711 206.359C105.662 206.333 105.609 206.306 105.556 206.279C104.143 205.59 102.745 204.868 101.363 204.113C100.2 201.443 98.564 200.932 97.549 198.583C97.2536 197.886 97.0401 197.156 96.9127 196.41C96.9127 196.402 96.909 196.394 96.909 196.383C97.015 197.792 96.4583 193.883 96.9052 196.368C96.9014 196.322 96.8976 196.273 96.8938 196.216C96.8824 196.08 96.8673 195.913 96.8446 195.705C95.5455 183.021 95.6288 168.515 95.0645 156.562C95.0266 155.79 94.9875 155.05 94.9471 154.343C94.9357 154.108 94.9206 153.877 94.9054 153.65C94.9319 153.582 94.9622 153.51 94.9963 153.441C95.0036 153.422 95.0124 153.403 95.0228 153.385C95.034 153.361 95.0467 153.338 95.0607 153.316C95.0683 153.305 95.0797 153.29 95.0872 153.279C95.0928 153.266 95.0991 153.253 95.1062 153.241C95.1402 153.188 95.1781 153.131 95.2198 153.078C95.2387 153.055 95.2539 153.036 95.2728 153.017C95.2859 152.998 95.3011 152.98 95.3183 152.964C95.3299 152.946 95.3439 152.93 95.3599 152.915C95.3751 152.9 95.3902 152.881 95.4091 152.862C95.4172 152.85 95.4275 152.84 95.4395 152.832C95.4694 152.797 95.5024 152.766 95.5379 152.737C95.673 152.613 95.8174 152.499 95.9697 152.396C96.0227 152.362 96.0795 152.328 96.1325 152.29C96.5142 152.062 96.9161 151.869 97.3331 151.714C97.4771 151.661 97.621 151.612 97.7763 151.559C97.8331 151.544 97.8861 151.525 97.9429 151.506C98.0262 151.48 98.1096 151.453 98.1967 151.434C98.6284 151.305 99.0943 151.196 99.598 151.093C99.6586 151.082 99.723 151.071 99.7874 151.055C99.8783 151.036 99.973 151.021 100.068 151.006C100.196 150.983 100.329 150.961 100.462 150.938C101.586 150.76 102.863 150.627 104.272 150.54C104.404 150.533 104.537 150.525 104.669 150.518C104.825 150.51 104.98 150.502 105.139 150.495C105.272 150.487 105.408 150.484 105.544 150.48C105.677 150.472 105.813 150.468 105.953 150.465C106.336 150.453 106.73 150.442 107.131 150.434C108.275 150.412 109.479 150.419 110.744 150.446C111.331 150.461 111.93 150.476 112.543 150.502C112.585 150.502 112.623 150.506 112.661 150.506C113.195 150.525 113.733 150.548 114.286 150.578C114.672 150.597 115.062 150.616 115.452 150.639C115.819 150.662 116.191 150.684 116.566 150.711C116.857 150.726 117.149 150.749 117.444 150.768C117.694 150.787 117.944 150.805 118.194 150.821L118.535 150.843C118.721 150.858 118.906 150.87 119.096 150.889C119.512 150.923 119.929 150.957 120.353 150.991C120.773 151.029 121.201 151.067 121.629 151.105C122.057 151.143 122.489 151.184 122.921 151.226C122.966 151.23 123.008 151.233 123.05 151.237C123.443 151.279 123.837 151.317 124.235 151.358C124.326 151.366 124.421 151.374 124.511 151.385C124.891 151.423 125.277 151.468 125.66 151.508C125.777 151.521 125.894 151.533 126.012 151.546C126.312 151.579 126.607 151.607 126.909 151.642C127.307 151.688 127.712 151.73 128.106 151.783C128.412 151.817 128.719 151.851 129.026 151.889C129.507 151.945 129.996 152.006 130.484 152.07C130.67 152.093 130.855 152.116 131.041 152.142C132.435 152.317 133.844 152.51 135.275 152.711C137.445 153.017 139.65 153.351 141.869 153.71C144.092 154.07 146.328 154.45 148.577 154.85C149.145 154.953 149.713 155.055 150.285 155.161C150.542 155.21 150.8 155.259 151.057 155.309C151.497 155.388 151.936 155.472 152.375 155.555C152.815 155.638 153.254 155.721 153.693 155.809C154.216 155.911 154.742 156.013 155.265 156.115C158.708 156.797 162.132 157.524 165.472 158.286C166.021 158.411 166.571 158.539 167.116 158.664C168.207 158.918 169.287 159.176 170.358 159.437C170.653 159.505 170.945 159.577 171.237 159.649C171.964 159.831 172.691 160.013 173.407 160.198L173.532 160.232C174.058 160.361 174.573 160.494 175.088 160.63C176.304 160.948 177.5 161.27 178.675 161.596C179.455 161.812 180.227 162.03 180.989 162.251C182.129 162.58 183.246 162.914 184.333 163.251C184.602 163.334 184.871 163.417 185.136 163.497C185.932 163.743 186.716 163.993 187.477 164.243C188.083 164.44 188.674 164.641 189.257 164.842C189.84 165.042 190.412 165.243 190.973 165.444C191.333 165.573 191.689 165.709 192.045 165.838C192.556 166.027 193.06 166.216 193.552 166.406C193.703 166.463 193.851 166.523 193.999 166.58C194.094 166.622 194.184 166.656 194.275 166.694C194.453 166.766 194.635 166.834 194.809 166.906C194.987 166.974 195.162 167.046 195.336 167.122C195.506 167.19 195.68 167.262 195.847 167.334C196.018 167.402 196.184 167.474 196.351 167.55C196.491 167.606 196.627 167.667 196.76 167.728C197.029 167.845 197.298 167.962 197.559 168.084C197.688 168.144 197.817 168.201 197.945 168.262L198.241 168.398C198.282 168.421 198.324 168.44 198.366 168.459C198.46 168.504 198.559 168.553 198.654 168.599C198.873 168.701 199.089 168.811 199.301 168.913C199.585 169.057 199.862 169.201 200.127 169.341C200.396 169.485 200.657 169.629 200.907 169.769C200.949 169.792 200.987 169.814 201.028 169.837C201.085 169.867 201.142 169.902 201.199 169.932C201.392 170.042 201.577 170.155 201.763 170.265C202.127 170.489 202.471 170.708 202.793 170.928C202.865 170.977 202.933 171.026 203.005 171.072C203.244 171.242 203.471 171.409 203.683 171.579C203.683 171.583 203.683 171.583 203.687 171.583C203.759 171.636 203.827 171.693 203.895 171.746C203.952 171.799 204.013 171.844 204.07 171.897C204.266 172.068 204.448 172.231 204.615 172.397C204.671 172.449 204.724 172.503 204.774 172.56C204.796 172.579 204.816 172.599 204.835 172.621C204.91 172.697 204.978 172.772 205.043 172.848C205.053 172.858 205.062 172.87 205.069 172.882C205.16 172.988 205.244 173.094 205.323 173.2C205.361 173.253 205.403 173.306 205.437 173.359C205.482 173.424 205.528 173.492 205.566 173.556C205.6 173.609 205.63 173.666 205.66 173.719C205.741 173.856 205.809 173.999 205.865 174.147C205.907 174.248 205.942 174.352 205.967 174.458C205.996 174.558 206.017 174.661 206.031 174.765Z" fill="#2F2E41"/>
<path opacity="0.2" d="M206.031 174.764C206.028 175.427 206.02 176.355 205.99 177.503C205.986 177.662 205.978 177.825 205.975 177.991C205.937 179.601 205.88 181.589 205.8 183.835C205.797 183.972 205.793 184.104 205.785 184.241C205.679 186.983 205.513 190.175 205.225 195.232C204.691 204.571 203.759 196.515 202.824 199.792C200.225 198.193 197.377 196.519 194.332 194.8C193.783 194.489 193.229 194.177 192.67 193.864C186.579 190.467 179.777 186.907 172.676 183.381C172.396 183.241 172.112 183.101 171.831 182.964C155.564 174.924 137.809 167.103 123.425 161.884C120.648 160.876 117.997 159.967 115.505 159.168C110.256 157.49 105.719 156.316 102.227 155.809C98.5906 155.278 96.0796 155.468 95.0646 156.562C95.0267 155.79 94.9875 155.05 94.9471 154.343C94.932 154.108 94.9168 153.877 94.9017 153.65C94.9251 153.587 94.9554 153.528 94.9849 153.468C94.9891 153.459 94.9921 153.45 94.9964 153.441C95.0036 153.422 95.0125 153.403 95.0229 153.385C95.0341 153.361 95.0467 153.338 95.0608 153.316C95.0731 153.29 95.0883 153.264 95.1062 153.241C95.1403 153.188 95.1782 153.131 95.2198 153.078C95.2505 153.038 95.2834 153 95.3183 152.964C95.3299 152.946 95.344 152.929 95.36 152.915C95.3751 152.9 95.3903 152.881 95.4092 152.862C95.4173 152.85 95.4276 152.84 95.4395 152.832C95.4695 152.797 95.5024 152.766 95.538 152.737C95.6731 152.613 95.8174 152.499 95.9698 152.396C96.0228 152.362 96.0796 152.328 96.1326 152.29C96.5143 152.062 96.9162 151.869 97.3332 151.714C97.4771 151.661 97.6211 151.612 97.7763 151.559C97.8331 151.544 97.8862 151.525 97.943 151.506C98.0263 151.48 98.1096 151.453 98.1967 151.434C98.6285 151.305 99.0943 151.195 99.5981 151.093C99.7496 151.063 99.9086 151.033 100.068 151.006C100.196 150.983 100.329 150.961 100.462 150.938C101.586 150.76 102.863 150.627 104.272 150.54C104.404 150.533 104.537 150.525 104.669 150.518C104.825 150.51 104.98 150.502 105.139 150.495C105.272 150.487 105.408 150.483 105.544 150.48C105.677 150.472 105.813 150.468 105.953 150.465C106.336 150.453 106.73 150.442 107.131 150.434C108.275 150.415 109.479 150.423 110.744 150.449C111.331 150.461 111.93 150.48 112.543 150.506C112.581 150.506 112.623 150.51 112.661 150.51C113.195 150.525 113.736 150.552 114.286 150.578C114.672 150.597 115.062 150.616 115.452 150.639C115.819 150.661 116.191 150.684 116.566 150.711C116.857 150.726 117.149 150.749 117.444 150.768C117.694 150.786 117.944 150.805 118.194 150.821C118.493 150.843 118.793 150.866 119.096 150.889C119.512 150.923 119.929 150.957 120.353 150.991C120.773 151.029 121.201 151.067 121.629 151.105C122.057 151.142 122.489 151.184 122.921 151.226C122.966 151.23 123.008 151.233 123.05 151.237C123.444 151.279 123.837 151.317 124.235 151.358C126.439 151.582 128.708 151.843 131.041 152.142C132.435 152.32 133.846 152.511 135.275 152.714C137.446 153.021 139.65 153.354 141.869 153.71C144.092 154.07 146.328 154.45 148.577 154.85C149.145 154.953 149.713 155.055 150.285 155.161C150.982 155.29 151.679 155.421 152.375 155.555C152.815 155.638 153.254 155.721 153.693 155.809C154.216 155.911 154.743 156.013 155.265 156.115C158.708 156.797 162.132 157.524 165.472 158.285C166.021 158.41 166.571 158.539 167.116 158.664C168.207 158.918 169.287 159.176 170.358 159.437C170.653 159.509 170.945 159.581 171.237 159.653C171.968 159.835 172.691 160.016 173.407 160.198V160.202C173.448 160.209 173.49 160.221 173.532 160.232C174.054 160.365 174.573 160.497 175.088 160.634C176.304 160.952 177.5 161.272 178.675 161.596C179.455 161.815 180.228 162.031 180.989 162.251C182.129 162.584 183.247 162.917 184.333 163.251C184.602 163.334 184.871 163.417 185.136 163.497C185.932 163.747 186.712 163.996 187.477 164.243C188.083 164.44 188.674 164.641 189.257 164.841C189.84 165.042 190.412 165.243 190.973 165.444C191.336 165.572 191.692 165.705 192.045 165.834C192.56 166.023 193.06 166.213 193.552 166.406C193.703 166.462 193.851 166.523 193.999 166.58C194.275 166.686 194.544 166.796 194.809 166.906C194.987 166.974 195.162 167.046 195.336 167.121C195.506 167.19 195.681 167.262 195.847 167.334C196.018 167.402 196.184 167.474 196.351 167.549C196.491 167.606 196.627 167.667 196.76 167.727C197.029 167.845 197.298 167.962 197.559 168.083C197.688 168.144 197.817 168.201 197.945 168.262L198.241 168.398C198.282 168.421 198.324 168.44 198.366 168.458C198.688 168.61 198.998 168.761 199.301 168.913C199.585 169.057 199.862 169.201 200.127 169.341C200.441 169.508 200.74 169.67 201.028 169.837C201.085 169.867 201.142 169.901 201.199 169.932C201.392 170.042 201.577 170.155 201.763 170.265C202.127 170.488 202.471 170.708 202.793 170.928C203.111 171.147 203.407 171.363 203.683 171.579C203.683 171.583 203.683 171.583 203.687 171.583C203.82 171.689 203.948 171.795 204.07 171.897C204.267 172.068 204.448 172.231 204.615 172.397C204.671 172.449 204.724 172.503 204.774 172.56C204.796 172.578 204.816 172.599 204.835 172.621C204.914 172.708 204.994 172.795 205.07 172.882C205.16 172.988 205.244 173.094 205.323 173.2C205.361 173.253 205.403 173.306 205.437 173.359C205.482 173.424 205.528 173.492 205.566 173.556C205.6 173.609 205.63 173.666 205.66 173.719C205.741 173.856 205.809 173.999 205.865 174.147C205.906 174.248 205.94 174.352 205.967 174.458C205.996 174.558 206.017 174.661 206.031 174.764Z" fill="black"/>
<path d="M141.5 75.5V76" stroke="#4F2E8C"/>
</g>
<defs>
<clipPath id="clip0_101_2">
<rect width="298" height="216.737" fill="white"/>
</clipPath>
</defs>
</svg>
