<svg width="48" height="48" viewBox="0 0 48 48" fill="none" xmlns="http://www.w3.org/2000/svg">
<g clip-path="url(#clip0_101_12)">
<path d="M7.84236 9.30054L7.84235 9.30054C7.24975 9.73704 6.9054 10.5073 6.9054 11.3167V38.0926C6.9054 39.3467 7.73846 40.4565 8.86968 40.4565C10.0009 40.4565 10.834 39.3467 10.834 38.0926V15.3219L22.7758 23.251L22.7758 23.251C23.367 23.6435 24.0867 23.6435 24.6779 23.251L24.5485 23.056L24.6779 23.251L36.6197 15.3219V38.0926C36.6197 39.3467 37.4528 40.4565 38.584 40.4565C39.7152 40.4565 40.5483 39.3467 40.5483 38.0926V11.3167C40.5483 10.5073 40.2039 9.73704 39.6114 9.30055L39.6113 9.30055C39.0098 8.85747 38.2526 8.83563 37.6329 9.24717C37.6329 9.24717 37.6329 9.24718 37.6329 9.24718L23.7268 18.4805L9.82072 9.24717C9.20092 8.83563 8.44393 8.85747 7.84236 9.30054Z" fill="#7528F0" stroke="#7528F0" stroke-width="0.5"/>
<path d="M35.8928 0.41933C27.7982 -0.47311 19.6554 -0.47311 11.561 0.41933L8.09279 0.801715C4.22457 1.2282 1.15523 4.8558 0.605451 9.49288C-0.53515 19.1132 -0.53515 28.8869 0.605451 38.5072C1.15523 43.1443 4.22457 46.7718 8.09279 47.1983L11.561 47.5806C19.6554 48.4732 27.7982 48.4732 35.8928 47.5806L39.3609 47.1983C43.2291 46.7718 46.2985 43.1443 46.8483 38.5072C47.9889 28.8869 47.9889 19.1132 46.8483 9.49288C46.2985 4.8558 43.2291 1.2282 39.3609 0.801715L35.8928 0.41933ZM11.9211 5.12731C19.776 4.26129 27.6777 4.26129 35.5326 5.12731L39.0007 5.50968C40.9927 5.72929 42.6579 7.62196 42.9593 10.1633C44.047 19.339 44.047 28.661 42.9593 37.8366C42.6579 40.3781 40.9927 42.2706 39.0007 42.4902L35.5326 42.8728C27.6777 43.7386 19.776 43.7386 11.9211 42.8728L8.45292 42.4902C6.46114 42.2706 4.79579 40.3781 4.49448 37.8366C3.4066 28.661 3.4066 19.339 4.49448 10.1633C4.79579 7.62196 6.46115 5.72929 8.45291 5.50968L11.9211 5.12731Z" fill="#7528F0" stroke="#7528F0" stroke-width="0.5"/>
</g>
<defs>
<clipPath id="clip0_101_12">
<rect width="48" height="48" fill="white"/>
</clipPath>
</defs>
</svg>
