<svg width="28" height="32" viewBox="0 0 28 32" fill="none" xmlns="http://www.w3.org/2000/svg">
<g clip-path="url(#clip0_110_9)">
<mask id="path-1-inside-1_110_9" fill="white">
<path d="M2.77765 28.4549L0.282104 0.444336H27.718L25.2224 28.4398L13.9773 31.5555"/>
</mask>
<path d="M2.77765 28.4549L0.282104 0.444336H27.718L25.2224 28.4398L13.9773 31.5555" fill="#260063"/>
<path d="M0.282104 0.444336V-0.0556641H-0.264423L-0.215923 0.488707L0.282104 0.444336ZM27.718 0.444336L28.216 0.488731L28.2646 -0.0556641H27.718V0.444336ZM25.2224 28.4398L25.3559 28.9216L25.6897 28.8291L25.7204 28.4842L25.2224 28.4398ZM3.27568 28.4105L0.780132 0.399965L-0.215923 0.488707L2.27962 28.4992L3.27568 28.4105ZM0.282104 0.944336H27.718V-0.0556641H0.282104V0.944336ZM27.22 0.39994L24.7244 28.3954L25.7204 28.4842L28.216 0.488731L27.22 0.39994ZM25.0889 27.9579L13.8438 31.0736L14.1108 32.0373L25.3559 28.9216L25.0889 27.9579Z" fill="#7949FF" fill-opacity="0.21" mask="url(#path-1-inside-1_110_9)"/>
<path d="M13.9999 29.1737V2.74365H25.2147L23.0746 26.6403" fill="#7949FF" fill-opacity="0.21"/>
<path d="M5.37903 6.16919H14V9.60245H9.14503L9.46265 13.1189H14V16.5446H6.31675L5.37903 6.16919ZM6.46799 18.2688H9.91638L10.1584 21.0139L14 22.0424V25.6269L6.95198 23.6607" fill="#EBEBEB"/>
<path d="M22.5906 6.16919H13.9847V9.60245H22.273L22.5906 6.16919ZM21.9629 13.1189H13.9847V16.5522H18.2196L17.8188 21.0139L13.9847 22.0424V25.6117L21.0176 23.6607" fill="white"/>
</g>
<defs>
<clipPath id="clip0_110_9">
<rect width="28" height="32" fill="white"/>
</clipPath>
</defs>
</svg>
