<svg width="28" height="32" viewBox="0 0 28 32" fill="none" xmlns="http://www.w3.org/2000/svg">
<g clip-path="url(#clip0_110_9)">
<mask id="path-1-inside-1_110_9" fill="white">
<path d="M2.77765 28.4549L0.282104 0.444336H27.718L25.2224 28.4398L13.9773 31.5555"/>
</mask>
<path d="M2.77765 28.4549L0.282104 0.444336H27.718L25.2224 28.4398L13.9773 31.5555" fill="#7528F0"/>
<path d="M0.282104 0.444336V-0.555664H-0.81095L-0.71395 0.533078L0.282104 0.444336ZM27.718 0.444336L28.7141 0.533127L28.8111 -0.555664H27.718V0.444336ZM25.2224 28.4398L25.4894 29.4035L26.1569 29.2185L26.2185 28.5286L25.2224 28.4398ZM3.77371 28.3661L1.27816 0.355594L-0.71395 0.533078L1.7816 28.5436L3.77371 28.3661ZM0.282104 1.44434H27.718V-0.555664H0.282104V1.44434ZM26.722 0.355545L24.2264 28.351L26.2185 28.5286L28.7141 0.533127L26.722 0.355545ZM24.9554 27.4761L13.7103 30.5918L14.2443 32.5192L25.4894 29.4035L24.9554 27.4761Z" fill="#7949FF" fill-opacity="0.21" mask="url(#path-1-inside-1_110_9)"/>
<path d="M13.9999 29.1737V2.74365H25.2147L23.0746 26.6403" fill="white" fill-opacity="0.11"/>
<path d="M5.37903 6.16919H14V9.60245H9.14503L9.46265 13.1189H14V16.5446H6.31675L5.37903 6.16919ZM6.46799 18.2688H9.91638L10.1584 21.0139L14 22.0424V25.6269L6.95198 23.6607" fill="#EBEBEB"/>
<path d="M22.5906 6.16919H13.9847V9.60245H22.273L22.5906 6.16919ZM21.9629 13.1189H13.9847V16.5522H18.2196L17.8188 21.0139L13.9847 22.0424V25.6117L21.0176 23.6607" fill="white"/>
</g>
<defs>
<clipPath id="clip0_110_9">
<rect width="28" height="32" fill="white"/>
</clipPath>
</defs>
</svg>
