<svg width="32" height="32" viewBox="0 0 32 32" fill="none" xmlns="http://www.w3.org/2000/svg">
<g clip-path="url(#clip0_110_14)">
<path d="M31.4246 0.444336H0.139709V31.5555H31.4246V0.444336Z" fill="#7528F0"/>
<path d="M0.389709 31.3055V0.694336H31.1746V31.3055H0.389709Z" stroke="#7949FF" stroke-opacity="0.21" stroke-width="0.5"/>
<path d="M21.1552 23.7501C21.7854 24.7733 22.6053 25.5254 24.0553 25.5254C25.2734 25.5254 26.0516 24.92 26.0516 24.0835C26.0516 23.081 25.2521 22.7259 23.9113 22.1427L23.1763 21.8291C21.0549 20.9304 19.6456 19.8044 19.6456 17.4242C19.6456 15.2316 21.3256 13.5625 23.951 13.5625C25.8202 13.5625 27.1639 14.2094 28.1323 15.9032L25.843 17.3649C25.339 16.4662 24.7952 16.1121 23.951 16.1121C23.0899 16.1121 22.5442 16.6553 22.5442 17.3649C22.5442 18.242 23.0904 18.597 24.3518 19.1402L25.0867 19.4533C27.5845 20.5185 28.9948 21.6044 28.9948 24.0459C28.9948 26.678 26.9156 28.12 24.1233 28.12C21.3931 28.12 19.6292 26.8262 18.7662 25.1304L21.1552 23.7501ZM10.7701 24.0035C11.2319 24.8183 11.6521 25.5072 12.6621 25.5072C13.628 25.5072 14.2373 25.1314 14.2373 23.6701V13.7294H17.1771V23.7096C17.1771 26.7368 15.3923 28.1146 12.7873 28.1146C10.4334 28.1146 9.07031 26.9032 8.37708 25.4442L10.7701 24.0035Z" fill="white"/>
</g>
<defs>
<clipPath id="clip0_110_14">
<rect width="32" height="32" fill="white"/>
</clipPath>
</defs>
</svg>
