<svg width="32" height="20" viewBox="0 0 32 20" fill="none" xmlns="http://www.w3.org/2000/svg">
<g clip-path="url(#clip0_110_17)">
<path d="M7.78534 5.53235H13.6532V5.99649H8.32322V9.48978H13.3353V9.95392H8.32322V13.7893H13.7143V14.2534H7.78534V5.53235ZM14.1788 5.53235H14.8023L17.5651 9.36764L20.389 5.53235L24.2299 0.660645L17.9196 9.77071L21.1713 14.2534H20.5234L17.5651 10.1738L14.5945 14.2534H13.9588L17.235 9.77071L14.1788 5.53235ZM21.4036 5.99649V5.53235H28.0905V5.99649H25.0099V14.2534H24.472V5.99649H21.4036Z" fill="#7528F0"/>
<path d="M8.32322 13.8393H13.6643V14.2034H7.83534V5.58235H13.6032V5.94649H8.32322H8.27322V5.99649V9.48978V9.53978H8.32322H13.2853V9.90392H8.32322H8.27322V9.95392V13.7893V13.8393H8.32322ZM17.6054 9.39729L20.4288 5.56267L20.4293 5.562L23.2683 1.96104L17.8785 9.74224L17.8583 9.77138L17.8791 9.80007L21.0733 14.2034H20.5489L17.6056 10.1444L17.5652 10.0887L17.5247 10.1443L14.5691 14.2034H14.0573L17.2754 9.80021L17.2968 9.77091L17.2756 9.74147L14.2765 5.58235H14.7767L17.5245 9.39687L17.5647 9.45257L17.6054 9.39729ZM24.472 5.94649H21.4536V5.58235H28.0405V5.94649H25.0099H24.9599V5.99649V14.2034H24.522V5.99649V5.94649H24.472Z" stroke="#7949FF" stroke-opacity="0.21" stroke-width="0.1"/>
<path d="M0.444458 5.53223H1.11681L10.3882 19.3393L6.55679 14.2532L1.00679 6.1918L0.982343 14.2532H0.444458V5.53223Z" fill="#7528F0"/>
<path d="M0.95679 6.19165L0.932494 14.2032H0.494458V5.58223H1.09016L9.3199 17.8381L6.59737 14.224L1.04797 6.16344L0.957275 6.0317L0.95679 6.19165Z" stroke="#7949FF" stroke-opacity="0.21" stroke-width="0.1"/>
<path d="M28.0364 13.6492C28.1476 13.6492 28.2287 13.5645 28.2287 13.4549C28.2287 13.3454 28.1476 13.2607 28.0364 13.2607C27.9265 13.2607 27.8441 13.3454 27.8441 13.4549C27.8441 13.5645 27.9265 13.6492 28.0364 13.6492ZM28.5649 13.1382C28.5649 13.4615 28.7991 13.6727 29.1405 13.6727C29.5042 13.6727 29.724 13.4549 29.724 13.0769V11.7458H29.431V13.0756C29.431 13.2855 29.325 13.3976 29.1379 13.3976C28.9705 13.3976 28.8566 13.2933 28.8527 13.1382H28.5649ZM30.1073 13.1212C30.1283 13.4576 30.4096 13.6727 30.8282 13.6727C31.2756 13.6727 31.5556 13.4471 31.5556 13.0873C31.5556 12.8044 31.396 12.648 31.0087 12.558L30.8007 12.5072C30.5548 12.4498 30.4553 12.3729 30.4553 12.2386C30.4553 12.0691 30.6097 11.9583 30.8413 11.9583C31.0611 11.9583 31.2128 12.0665 31.2403 12.2399H31.5255C31.5085 11.9231 31.2285 11.7002 30.8452 11.7002C30.4331 11.7002 30.1584 11.9231 30.1584 12.2582C30.1584 12.5346 30.3141 12.6988 30.6555 12.7783L30.8988 12.837C31.1487 12.8957 31.2586 12.9817 31.2586 13.1251C31.2586 13.292 31.0859 13.4132 30.8504 13.4132C30.5979 13.4132 30.4226 13.2998 30.3978 13.1212H30.1073Z" fill="#7528F0"/>
<path d="M31.4873 12.2049H31.269C31.2261 12.0272 31.0606 11.9233 30.8413 11.9233C30.7204 11.9233 30.6161 11.9522 30.5409 12.0065C30.4649 12.0616 30.4203 12.1419 30.4203 12.2386C30.4203 12.3165 30.4501 12.3795 30.5143 12.4294C30.5761 12.4773 30.6685 12.5122 30.7926 12.5412C30.7926 12.5413 30.7927 12.5413 30.7928 12.5413L31.0004 12.592L31.0004 12.592L31.0008 12.5921C31.192 12.6365 31.3214 12.6962 31.403 12.7754C31.4832 12.8532 31.5206 12.9532 31.5206 13.0873C31.5206 13.2573 31.4549 13.3933 31.3377 13.4877C31.2197 13.5827 31.0464 13.6377 30.8282 13.6377C30.6246 13.6377 30.4577 13.5854 30.3399 13.4953C30.2321 13.4128 30.1637 13.2974 30.1458 13.1562H30.3687C30.4116 13.3416 30.6031 13.4482 30.8504 13.4482C30.9738 13.4482 31.0833 13.4165 31.163 13.3603C31.2431 13.3039 31.2936 13.2219 31.2936 13.1251C31.2936 13.0425 31.2611 12.9752 31.1942 12.9219C31.1294 12.8703 31.0335 12.8327 30.9069 12.8029C30.9069 12.8029 30.9069 12.8029 30.9068 12.8029L30.6637 12.7443L30.6635 12.7442C30.4962 12.7053 30.3793 12.6466 30.3043 12.5679C30.2301 12.4902 30.1934 12.3893 30.1934 12.2582C30.1934 12.1011 30.2574 11.9716 30.3693 11.8807C30.4819 11.7893 30.6452 11.7352 30.8452 11.7352C31.2001 11.7352 31.4526 11.9311 31.4873 12.2049ZM28.1937 13.4549C28.1937 13.5458 28.1276 13.6142 28.0364 13.6142C27.9464 13.6142 27.8791 13.5457 27.8791 13.4549C27.8791 13.3642 27.9463 13.2957 28.0364 13.2957C28.1276 13.2957 28.1937 13.3641 28.1937 13.4549ZM29.1405 13.6377C28.977 13.6377 28.8421 13.5872 28.7484 13.5009C28.6622 13.4216 28.6087 13.3099 28.6009 13.1732H28.8203C28.8292 13.2449 28.8607 13.3066 28.9104 13.3519C28.9677 13.4042 29.0469 13.4326 29.1379 13.4326C29.2386 13.4326 29.3222 13.4022 29.3804 13.339C29.4381 13.2762 29.466 13.186 29.466 13.0756V11.7808H29.689V13.0769C29.689 13.2592 29.6361 13.3984 29.5437 13.492C29.4514 13.5855 29.3154 13.6377 29.1405 13.6377Z" stroke="#7949FF" stroke-opacity="0.21" stroke-width="0.07"/>
</g>
<defs>
<clipPath id="clip0_110_17">
<rect width="32" height="20" fill="white"/>
</clipPath>
</defs>
</svg>
