<svg width="33" height="34" viewBox="0 0 33 34" fill="none" xmlns="http://www.w3.org/2000/svg">
<path d="M16.4079 19.7427C17.9312 19.7427 19.166 18.5147 19.166 16.9999C19.166 15.4851 17.9312 14.2571 16.4079 14.2571C14.8846 14.2571 13.6497 15.4851 13.6497 16.9999C13.6497 18.5147 14.8846 19.7427 16.4079 19.7427Z" fill="#260063"/>
<path d="M19.016 16.9999C19.016 18.4311 17.8492 19.5927 16.4079 19.5927C14.9667 19.5927 13.7997 18.431 13.7997 16.9999C13.7997 15.5687 14.9667 14.4071 16.4079 14.4071C17.8492 14.4071 19.016 15.5687 19.016 16.9999Z" stroke="#7949FF" stroke-opacity="0.21" stroke-width="0.3"/>
<path fill-rule="evenodd" clip-rule="evenodd" d="M3.4391 15.5568C2.81362 16.1183 2.60803 16.6079 2.60803 17C2.60803 17.3922 2.81362 17.8817 3.4391 18.4432C4.06415 19.0043 5.02505 19.5554 6.29777 20.0387C8.83619 21.0025 12.4104 21.6195 16.4079 21.6195C20.4054 21.6195 23.9795 21.0025 26.518 20.0387C27.7907 19.5554 28.7516 19.0043 29.3766 18.4432C30.0021 17.8817 30.2077 17.3922 30.2077 17C30.2077 16.6079 30.0021 16.1183 29.3766 15.5568C28.7516 14.9957 27.7907 14.4446 26.518 13.9613C23.9795 12.9975 20.4054 12.3806 16.4079 12.3806C12.4104 12.3806 8.83619 12.9975 6.29777 13.9613C5.02505 14.4446 4.06415 14.9957 3.4391 15.5568ZM5.58783 12.0916C8.4059 11.0216 12.2316 10.3806 16.4079 10.3806C20.5841 10.3806 24.4098 11.0216 27.2279 12.0916C28.6334 12.6252 29.8399 13.285 30.7127 14.0685C31.585 14.8516 32.2077 15.8404 32.2077 17C32.2077 18.1596 31.585 19.1484 30.7127 19.9315C29.8399 20.715 28.6334 21.3748 27.2279 21.9084C24.4098 22.9784 20.5841 23.6195 16.4079 23.6195C12.2316 23.6195 8.4059 22.9784 5.58783 21.9084C4.18231 21.3748 2.97583 20.715 2.10306 19.9315C1.23071 19.1484 0.608032 18.1596 0.608032 17C0.608032 15.8404 1.23071 14.8516 2.10306 14.0685C2.97583 13.285 4.18231 12.6252 5.58783 12.0916Z" fill="#260063"/>
<path d="M3.3389 18.5548L3.4391 18.4432L3.3389 18.5548C3.98253 19.1326 4.96185 19.6919 6.24452 20.1789L6.29777 20.0387L6.24453 20.1789C8.80392 21.1507 12.397 21.7695 16.4079 21.7695C20.4188 21.7695 24.0118 21.1507 26.5712 20.1789L26.518 20.0387L26.5713 20.1789C27.8539 19.6919 28.8332 19.1326 29.4768 18.5548C30.1212 17.9764 30.3577 17.4494 30.3577 17C30.3577 16.5507 30.1212 16.0237 29.4768 15.4452C28.8332 14.8674 27.8539 14.3082 26.5713 13.8211L26.518 13.9613L26.5712 13.8211C24.0118 12.8493 20.4188 12.2306 16.4079 12.2306C12.397 12.2306 8.80392 12.8493 6.24453 13.8211L6.24452 13.8211C4.96185 14.3082 3.98253 14.8674 3.3389 15.4452L3.4391 15.5568L3.3389 15.4452C2.69452 16.0237 2.45803 16.5507 2.45803 17C2.45803 17.4494 2.69453 17.9764 3.3389 18.5548ZM5.64107 12.2318L5.64108 12.2318C8.43817 11.1698 12.245 10.5306 16.4079 10.5306C20.5707 10.5306 24.3775 11.1698 27.1747 12.2318L27.2279 12.0916L27.1747 12.2318C28.5702 12.7617 29.7583 13.4133 30.6125 14.1801C31.4665 14.9468 32.0577 15.8982 32.0577 17C32.0577 18.1019 31.4665 19.0532 30.6125 19.8199C29.7583 20.5867 28.5702 21.2384 27.1747 21.7682L27.2279 21.9084L27.1747 21.7682C24.3775 22.8302 20.5707 23.4695 16.4079 23.4695C12.245 23.4695 8.43817 22.8302 5.64108 21.7682L5.58783 21.9084L5.64107 21.7682C4.24552 21.2384 3.05746 20.5867 2.20326 19.8199C1.34924 19.0532 0.758032 18.1019 0.758032 17C0.758032 15.8982 1.34924 14.9468 2.20326 14.1801L2.20326 14.1801C3.05746 13.4133 4.24552 12.7617 5.64107 12.2318Z" stroke="#7949FF" stroke-opacity="0.21" stroke-width="0.3"/>
<path fill-rule="evenodd" clip-rule="evenodd" d="M11.1884 5.11157C10.3877 4.85397 9.85575 4.92039 9.50999 5.11891C9.16423 5.31742 8.84045 5.74227 8.66443 6.56065C8.4884 7.37908 8.48891 8.48142 8.70429 9.81828C9.13389 12.4848 10.3832 15.8701 12.3813 19.3117C14.3794 22.7534 16.7029 25.5219 18.8103 27.2251C19.8669 28.079 20.8266 28.6306 21.6273 28.8882C22.428 29.1458 22.9599 29.0794 23.3057 28.8809C23.6514 28.6824 23.9752 28.2575 24.1512 27.4392C24.3273 26.6207 24.3268 25.5184 24.1114 24.1815C23.6818 21.515 22.4325 18.1297 20.4344 14.6881C18.4363 11.2464 16.1128 8.47796 14.0054 6.77471C12.9489 5.92079 11.9891 5.36918 11.1884 5.11157ZM15.2661 5.22626C17.6081 7.11917 20.0801 10.0946 22.1689 13.6923C24.2576 17.2899 25.6128 20.9066 26.0902 23.87C26.3284 25.3482 26.357 26.7179 26.111 27.8617C25.865 29.0055 25.3155 30.0332 24.3099 30.6105C23.3042 31.1879 22.1346 31.1473 21.0154 30.7873C19.8963 30.4272 18.7178 29.7177 17.5496 28.7736C15.2076 26.8806 12.7356 23.9052 10.6468 20.3075C8.5581 16.7099 7.20288 13.0932 6.72544 10.1298C6.4873 8.65166 6.45864 7.28196 6.70466 6.13815C6.95069 4.99427 7.50019 3.96665 8.50581 3.38928C9.51143 2.81191 10.6811 2.85249 11.8003 3.21254C12.9194 3.57257 14.0979 4.2821 15.2661 5.22626Z" fill="#260063"/>
<path d="M11.2343 4.96878L11.1884 5.11157L11.2343 4.96878C10.4095 4.70342 9.83016 4.76212 9.43531 4.98883C9.04027 5.21563 8.69921 5.68559 8.51779 6.52911C8.33647 7.37212 8.33911 8.49464 8.5562 9.84214C8.98941 12.5311 10.2467 15.9338 12.2515 19.387C14.2564 22.8405 16.5911 25.6244 18.716 27.3418C19.7809 28.2024 20.7569 28.7658 21.5813 29.031C22.4061 29.2964 22.9855 29.2377 23.3803 29.011L23.3804 29.011C23.7753 28.7842 24.1164 28.3142 24.2978 27.4708C24.4792 26.6277 24.4766 25.5052 24.2595 24.1577C23.8263 21.4688 22.569 18.0661 20.5641 14.6128C18.5592 11.1594 16.2246 8.37546 14.0997 6.65805C13.0348 5.79739 12.0587 5.23402 11.2343 4.96878ZM21.0613 30.6445C19.9659 30.2921 18.8037 29.5943 17.6439 28.657C15.3194 26.7781 12.8585 23.8182 10.7765 20.2322C8.69461 16.6463 7.34737 13.047 6.87353 10.106C6.63711 8.63845 6.61057 7.28893 6.85131 6.16969L6.70466 6.13815L6.85131 6.16969C7.09208 5.05024 7.62461 4.06818 8.5805 3.51936C9.53657 2.97044 10.6585 3.00281 11.7543 3.35533C12.8497 3.70774 14.0119 4.4055 15.1718 5.34292C17.4963 7.22167 19.9571 10.1817 22.0392 13.7676C24.1211 17.3536 25.4683 20.9529 25.9421 23.8939C26.1786 25.3614 26.205 26.711 25.9643 27.8302C25.7236 28.9496 25.191 29.9317 24.2352 30.4804C23.279 31.0294 22.1571 30.997 21.0613 30.6445Z" stroke="#7949FF" stroke-opacity="0.21" stroke-width="0.3"/>
<path fill-rule="evenodd" clip-rule="evenodd" d="M24.1512 6.56065C23.9752 5.74228 23.6514 5.31743 23.3057 5.11891C22.9599 4.9204 22.428 4.85398 21.6273 5.11157C20.8266 5.36919 19.8669 5.9208 18.8103 6.77471C16.7029 8.47796 14.3794 11.2464 12.3813 14.6881C10.3832 18.1297 9.13389 21.515 8.70429 24.1815C8.48891 25.5184 8.4884 26.6207 8.66443 27.4392C8.84045 28.2575 9.16423 28.6824 9.50999 28.8809C9.85575 29.0794 10.3877 29.1458 11.1884 28.8882C11.9891 28.6306 12.9488 28.079 14.0054 27.2251C16.1128 25.5219 18.4363 22.7534 20.4344 19.3117C22.4325 15.8701 23.6818 12.4848 24.1114 9.81828C24.3268 8.48142 24.3273 7.37909 24.1512 6.56065ZM26.0902 10.1298C25.6128 13.0932 24.2576 16.7099 22.1689 20.3075C20.0801 23.9052 17.6081 26.8806 15.2661 28.7736C14.0979 29.7177 12.9194 30.4272 11.8003 30.7873C10.6811 31.1473 9.51143 31.1879 8.50581 30.6105C7.50019 30.0332 6.95069 29.0055 6.70466 27.8617C6.45864 26.7179 6.4873 25.3482 6.72544 23.87C7.20288 20.9066 8.5581 17.2899 10.6468 13.6923C12.7356 10.0946 15.2076 7.11917 17.5496 5.22626C18.7178 4.2821 19.8963 3.57257 21.0154 3.21254C22.1346 2.85249 23.3042 2.81191 24.3099 3.38928C25.3155 3.96665 25.865 4.99427 26.111 6.13815C26.357 7.28196 26.3284 8.65166 26.0902 10.1298Z" fill="#260063"/>
<path d="M11.7543 30.6445C10.6585 30.997 9.53657 31.0294 8.5805 30.4804L8.5065 30.6093L8.58049 30.4804C7.62461 29.9317 7.09209 28.9496 6.85131 27.8302C6.61057 26.711 6.63711 25.3614 6.87353 23.8939C7.34737 20.9529 8.69461 17.3536 10.7765 13.7676C12.8585 10.1817 15.3194 7.22167 17.6439 5.34292C18.8037 4.4055 19.9659 3.70774 21.0613 3.35533C22.1571 3.00282 23.279 2.97044 24.2352 3.51937C25.1911 4.06818 25.7236 5.05024 25.9643 6.16969C26.205 7.28893 26.1786 8.63845 25.9421 10.106C25.4683 13.047 24.1211 16.6463 22.0392 20.2322C19.9571 23.8182 17.4963 26.7781 15.1718 28.657C14.0119 29.5943 12.8497 30.2921 11.7543 30.6445ZM11.7543 30.6445L11.8003 30.7873L11.7543 30.6445C11.7543 30.6445 11.7543 30.6445 11.7543 30.6445ZM23.3804 4.98883L23.3804 4.98882C22.9855 4.76213 22.4061 4.70343 21.5813 4.96878L21.6273 5.11157L21.5813 4.96878C20.7569 5.23403 19.7809 5.7974 18.716 6.65805L18.8103 6.77471L18.716 6.65805C16.5911 8.37546 14.2564 11.1594 12.2515 14.6128C10.2467 18.0661 8.98941 21.4688 8.5562 24.1577C8.33911 25.5052 8.33647 26.6277 8.51779 27.4708L8.66443 27.4392L8.51779 27.4708C8.69921 28.3142 9.04027 28.7842 9.43531 29.011C9.83017 29.2377 10.4095 29.2964 11.2343 29.031C12.0587 28.7658 13.0347 28.2024 14.0997 27.3418C16.2246 25.6244 18.5592 22.8405 20.5641 19.387C22.569 15.9338 23.8263 12.5311 24.2595 9.84214C24.4766 8.49465 24.4792 7.37213 24.2978 6.52911C24.1164 5.68559 23.7753 5.21564 23.3804 4.98883Z" stroke="#7949FF" stroke-opacity="0.21" stroke-width="0.3"/>
</svg>
