<svg width="32" height="32" viewBox="0 0 32 32" fill="none" xmlns="http://www.w3.org/2000/svg">
<g clip-path="url(#clip0_110_26)">
<path d="M0.444458 0.444336H31.5556V31.5555H0.444458V0.444336Z" fill="#260063"/>
<path d="M0.694458 0.694336H31.3056V31.3055H0.694458V0.694336Z" stroke="#7949FF" stroke-opacity="0.21" stroke-width="0.5"/>
<path d="M15.3827 11.9652H16.875V14.5416H12.8403V26.0041L12.7334 26.0332C12.5875 26.0721 10.6674 26.0721 10.2542 26.0284L9.92365 25.9992V14.5416H5.88892V11.9652L7.16739 11.9506C7.86739 11.9409 9.66601 11.9409 11.1632 11.9506C12.6605 11.9603 14.5563 11.9652 15.3827 11.9652ZM26.7723 24.7888C26.1792 25.4159 25.5424 25.7659 24.4827 26.0527C24.0209 26.1791 23.9431 26.1839 22.9028 26.1791C21.8626 26.1742 21.7799 26.1742 21.2744 26.043C19.9667 25.7075 18.9119 25.0513 18.1924 24.1228C17.9882 23.8603 17.6528 23.3159 17.6528 23.2478C17.6528 23.2284 17.7014 23.1846 17.7646 23.1555C17.8278 23.1263 17.9591 23.0436 18.066 22.9805C18.173 22.9173 18.3674 22.8006 18.4987 22.7325C18.6299 22.6645 19.0091 22.4409 19.3396 22.2416C19.6702 22.0423 19.9716 21.8818 20.0056 21.8818C20.0396 21.8818 20.1028 21.9499 20.1514 22.0325C20.4431 22.5235 21.1237 23.1506 21.6049 23.3645C21.9014 23.4909 22.5577 23.6318 22.8737 23.6318C23.1653 23.6318 23.7001 23.5055 23.9869 23.3742C24.2931 23.2332 24.4487 23.0923 24.6334 22.8103C24.7598 22.611 24.7744 22.5575 24.7695 22.1784C24.7695 21.8284 24.7501 21.7311 24.6528 21.5707C24.3806 21.1235 24.0112 20.8902 22.5139 20.2291C20.9681 19.5436 20.273 19.1353 19.7091 18.586C19.291 18.1777 19.2084 18.0659 18.9459 17.5555C18.6056 16.8992 18.5619 16.6853 18.557 15.7082C18.5521 15.0228 18.5667 14.7992 18.6396 14.5659C18.7417 14.2159 19.0723 13.5402 19.223 13.37C19.5341 13.0055 19.6459 12.8936 19.8646 12.7138C20.5257 12.1693 21.5563 11.8096 22.5431 11.7756C22.6549 11.7756 23.0244 11.795 23.3695 11.8193C24.3612 11.902 25.0369 12.145 25.6883 12.6652C26.1792 13.0541 26.923 13.968 26.8501 14.0895C26.8015 14.1624 24.8619 15.4555 24.7355 15.4943C24.6577 15.5186 24.6042 15.4895 24.4973 15.3631C23.8362 14.5707 23.5688 14.4006 22.9271 14.3617C22.4702 14.3325 22.2271 14.386 21.9209 14.5902C21.6001 14.8041 21.4445 15.1298 21.4445 15.5818C21.4494 16.243 21.7021 16.5541 22.6355 17.0159C23.2383 17.3124 23.7535 17.5555 23.7924 17.5555C23.8508 17.5555 25.1001 18.1777 25.4258 18.3721C26.9424 19.2617 27.5598 20.1756 27.7202 21.7506C27.8369 22.9367 27.5015 24.0207 26.7723 24.7888Z" fill="white"/>
</g>
<defs>
<clipPath id="clip0_110_26">
<rect width="32" height="32" fill="white"/>
</clipPath>
</defs>
</svg>
