<svg width="28" height="32" viewBox="0 0 28 32" fill="none" xmlns="http://www.w3.org/2000/svg">
<g clip-path="url(#clip0_110_2)">
<path d="M27.7161 0.444336L25.2169 28.4411L13.9832 31.5555L2.78037 28.4455L0.283875 0.444336H27.7161Z" fill="#7528F0"/>
<path d="M3.01401 28.2509L0.557155 0.694336H27.4428L24.9833 28.2464L13.9832 31.296L3.01401 28.2509Z" stroke="#7949FF" stroke-opacity="0.21" stroke-width="0.5"/>
<path d="M23.0774 26.6584L25.2131 2.73389H14V29.175L23.0774 26.6584Z" fill="white" fill-opacity="0.11"/>
<path d="M6.00702 13.1191L6.31482 16.5533H14V13.1191H6.00702Z" fill="#EBEBEB"/>
<path d="M14 6.16821H13.9881H5.38855L5.70073 9.60247H14V6.16821Z" fill="#EBEBEB"/>
<path d="M14 25.6113V22.0382L13.9849 22.0423L10.1602 21.0095L9.91568 18.2705H8.05717H6.46826L6.9494 23.6628L13.9841 25.6157L14 25.6113Z" fill="#EBEBEB"/>
<path d="M18.217 16.5533L17.8183 21.0073L13.9881 22.0411V25.6139L21.0284 23.6627L21.0801 23.0825L21.8871 14.0413L21.9709 13.1191L22.5909 6.16821H13.9881V9.60247H18.8273L18.5148 13.1191H13.9881V16.5533H18.217Z" fill="white"/>
</g>
<defs>
<clipPath id="clip0_110_2">
<rect width="28" height="32" fill="white"/>
</clipPath>
</defs>
</svg>
