<svg width="48" height="48" viewBox="0 0 48 48" fill="none" xmlns="http://www.w3.org/2000/svg">
<g clip-path="url(#clip0_101_3)">
<path fill-rule="evenodd" clip-rule="evenodd" d="M23.9921 0C18.2944 0.00304823 12.7835 2.08388 8.4449 5.87041C4.10628 9.65694 1.2228 14.9023 0.310063 20.6685C-0.602676 26.4346 0.514832 32.3457 3.46279 37.3447C6.41075 42.3436 10.9969 46.1045 16.4012 47.9548C17.5935 48.183 18.0426 47.421 18.0426 46.7732C18.0426 46.1253 18.0187 44.2469 18.0108 42.1932C11.334 43.6805 9.92317 39.288 9.92317 39.288C8.83422 36.4357 7.26041 35.686 7.26041 35.686C5.08252 34.162 7.42337 34.1906 7.42337 34.1906C9.83575 34.3658 11.1035 36.7291 11.1035 36.7291C13.2417 40.49 16.7191 39.4021 18.0863 38.7664C18.3009 37.1732 18.9249 36.0894 19.6124 35.4741C14.279 34.8547 8.67525 32.7441 8.67525 23.3153C8.64219 20.87 9.52724 18.5052 11.1473 16.7102C10.9008 16.0909 10.0782 13.589 11.3817 10.1908C11.3817 10.1908 13.3967 9.53066 17.983 12.713C21.9168 11.61 26.0673 11.61 30.0011 12.713C34.5835 9.53066 36.5944 10.1908 36.5944 10.1908C37.902 13.5809 37.0793 16.0827 36.8329 16.7102C38.458 18.5055 39.3449 20.8744 39.3089 23.3234C39.3089 32.7726 33.6932 34.8547 28.3518 35.4619C29.2103 36.2279 29.9773 37.7233 29.9773 40.0214C29.9773 43.3138 29.9495 45.9623 29.9495 46.7732C29.9495 47.4292 30.3827 48.1952 31.5988 47.9548C37.0037 46.1043 41.5903 42.3427 44.5382 37.3429C47.4861 32.3431 48.6031 26.4312 47.6893 20.6644C46.7755 14.8977 43.8906 9.65234 39.5506 5.86646C35.2105 2.08057 29.6984 0.00111611 24 0H23.9921Z" fill="#7528F0"/>
</g>
<defs>
<clipPath id="clip0_101_3">
<rect width="48" height="48" fill="white"/>
</clipPath>
</defs>
</svg>
