<svg width="51" height="51" viewBox="0 0 51 51" fill="none" xmlns="http://www.w3.org/2000/svg">
<path d="M34.4547 14.3691L34.2953 15.2001C34.0489 16.7747 34.1381 17.2251 34.8139 17.8096L35.4663 18.3493L34.7905 21.3625C34.3867 23.1603 33.8917 24.6669 33.5771 25.162C33.3072 25.5891 32.9928 26.2182 32.9247 26.5561C32.8121 26.9598 32.4296 27.3657 31.8453 27.7248C31.3289 28.018 30.3153 28.8043 29.597 29.4354C29.0232 29.9518 28.628 30.2684 28.4134 30.4044L27.7121 30.9591C27.5318 31.2264 27.3962 31.5215 27.3105 31.8324C27.2617 32.0598 27.2892 32.2107 27.3615 32.3211C27.4316 32.4275 27.5527 32.5018 27.7185 32.5486C27.9147 32.5945 28.1167 32.6109 28.3177 32.5974C28.7727 32.5663 29.2229 32.4865 29.6607 32.3594C29.8095 32.3191 29.9264 32.2809 30.0284 32.2468C30.1856 32.0534 30.549 31.688 31.1929 31.0525C32.9014 29.3675 33.5538 28.4451 32.8801 28.6938C32.6315 28.783 32.7442 28.5578 33.1713 28.1073C34.0722 27.2297 34.5886 25.9037 35.6681 21.745C36.5224 18.4619 36.5224 18.4152 37.1513 18.4152C37.4467 18.4152 38.2819 18.4662 38.2819 18.4662V14.3691H36.3652H34.4547ZM42.6127 21.0948C42.4766 21.0948 42.2513 21.2988 42.1175 21.5241C41.871 21.9279 42.1621 22.1743 45.8723 24.4906C48.076 25.8867 49.8525 27.0767 49.8079 27.1681C49.7632 27.2339 47.9633 28.4049 45.8065 29.7542C41.8923 32.1809 41.871 32.2043 42.2302 32.6994C42.6806 33.2838 42.2302 33.4857 47.311 30.3152L51 27.9543V26.1778L46.8839 23.6364C44.659 22.2423 42.7252 21.1182 42.6127 21.0948ZM8.432 21.3434C8.31937 21.3434 6.38562 22.4909 4.16075 23.8615L0 26.4031V28.1796L4.13737 30.7656C6.43237 32.1809 8.36613 33.3518 8.45538 33.3518C8.54463 33.3518 8.72525 33.1479 8.90588 32.9013C9.17575 32.4741 8.94837 32.2936 5.14887 29.8881C1.53 27.6164 1.1475 27.302 1.50875 27.0554C1.734 26.8982 3.4425 25.8399 5.287 24.6946C9.49237 22.1084 9.26712 22.2869 8.92925 21.7472C8.79537 21.5241 8.568 21.3222 8.43412 21.3434H8.432ZM26.8855 21.3924C26.265 21.388 24.9305 22.3337 20.9355 25.5955C20.7634 26.0057 20.7485 26.2883 20.8271 26.4711C20.8781 26.5964 20.9716 26.6836 21.1012 26.7473C21.2287 26.8111 21.3945 26.8493 21.5772 26.8641C21.9406 26.896 22.3699 26.8386 22.7163 26.7707L22.95 26.7175C23.0301 26.6103 23.1351 26.5241 23.256 26.4668C23.5025 26.3308 24.5374 25.3873 25.5723 24.3759C27.3934 22.5313 27.8205 21.6983 27.0788 21.4284C27.018 21.4042 26.9531 21.392 26.8876 21.3924H26.8855ZM31.552 22.6737C31.0058 22.6885 30.022 23.3218 28.3369 24.6669C27.4912 25.3533 26.9557 25.723 26.6688 25.7995L25.5552 26.6793C25.1366 27.4443 25.075 27.9182 25.1855 28.1796C25.2131 28.2441 25.2533 28.3023 25.3037 28.3513C25.354 28.4001 25.4134 28.4385 25.4787 28.4643C25.6411 28.5284 25.8142 28.5609 25.9887 28.5599C26.4059 28.5554 26.8204 28.4947 27.2212 28.3793C27.4301 28.3232 27.6365 28.258 27.8396 28.1838L27.9012 28.1583L28.0139 28.0989C28.2263 27.8247 28.7152 27.3084 29.3272 26.7133C31.2608 24.8476 32.249 23.5216 32.0471 23.0264C31.9557 22.7863 31.7985 22.6652 31.552 22.6737ZM26.401 24.9687C26.2437 24.9857 25.891 25.2576 25.2556 25.8144C24.3376 26.6262 23.3367 27.0936 22.9904 26.8854C22.9098 26.9035 22.8291 26.9206 22.7482 26.9364C22.3954 27.0066 21.9555 27.0639 21.5624 27.0321C21.3772 27.0208 21.1956 26.9754 21.0269 26.8982C20.8678 26.8254 20.7408 26.6969 20.6699 26.537C20.5913 26.3457 20.5912 26.1077 20.6805 25.8038L19.2993 26.9386L16.1734 29.5247V33.7173L26.4158 25.6487C26.4139 25.5603 26.4254 25.4722 26.4499 25.3873C26.5285 25.1026 26.5242 24.958 26.401 24.9708V24.9687ZM30.8082 26.3266C30.6532 26.3266 30.3938 26.5454 29.9795 26.9853C29.4164 27.5867 28.5303 28.169 28.0606 28.2879L27.9884 28.3262C27.9113 28.3581 27.8334 28.3878 27.7546 28.4154C27.6271 28.4579 27.4613 28.5089 27.2701 28.5599C26.8876 28.6641 26.4116 28.7597 25.9867 28.7491C25.7862 28.7488 25.5878 28.7098 25.4022 28.6344C25.2273 28.5622 25.0872 28.4251 25.0113 28.2518C24.888 27.9564 24.9368 27.5421 25.2068 26.9534L16.1712 34.0701V36.6306H20.1408L28.56 30.0177C28.7789 29.7755 29.1083 29.444 29.5523 29.0296C30.7424 27.9267 31.0122 27.5463 31.0122 26.9832C31.0122 26.5454 30.9634 26.3244 30.8082 26.3244V26.3266ZM32.8121 30.4703L32.0917 31.1886C31.688 31.5711 30.9676 32.0428 30.4747 32.2446L30.3769 32.2872L30.3705 32.2978L30.3492 32.3191C30.3301 32.3339 30.3217 32.3361 30.3068 32.3424C30.1099 32.4169 29.91 32.4828 29.7075 32.5401C29.2573 32.6711 28.7941 32.753 28.3263 32.7845C28.1051 32.7986 27.883 32.7792 27.6675 32.7271C27.4806 32.6859 27.3155 32.5769 27.2043 32.4211C27.1023 32.2638 27.0725 32.0534 27.1298 31.7942C27.1755 31.6096 27.2433 31.4312 27.3318 31.2629L20.5381 36.6306H29.5736L30.6532 35.3939C32.1364 33.6642 32.8121 32.4275 32.8121 31.3692V30.4703Z" fill="#7528F0"/>
</svg>
