<svg width="32" height="32" viewBox="0 0 32 32" fill="none" xmlns="http://www.w3.org/2000/svg">
<g clip-path="url(#clip0_110_26)">
<path d="M0.444458 0.444336H31.5556V31.5555H0.444458V0.444336Z" fill="#7528F0"/>
<path d="M0.694458 0.694336H31.3056V31.3055H0.694458V0.694336Z" stroke="#7949FF" stroke-opacity="0.21" stroke-width="0.5"/>
<path d="M16.3827 13.9652H17.875V16.5416H13.8403V28.0041L13.7334 28.0332C13.5875 28.0721 11.6674 28.0721 11.2542 28.0284L10.9236 27.9992V16.5416H6.88892V13.9652L8.16739 13.9506C8.86739 13.9409 10.666 13.9409 12.1632 13.9506C13.6605 13.9603 15.5563 13.9652 16.3827 13.9652ZM27.7723 26.7888C27.1792 27.4159 26.5424 27.7659 25.4827 28.0527C25.0209 28.1791 24.9431 28.1839 23.9028 28.1791C22.8626 28.1742 22.7799 28.1742 22.2744 28.043C20.9667 27.7075 19.9119 27.0513 19.1924 26.1228C18.9882 25.8603 18.6528 25.3159 18.6528 25.2478C18.6528 25.2284 18.7014 25.1846 18.7646 25.1555C18.8278 25.1263 18.9591 25.0436 19.066 24.9805C19.173 24.9173 19.3674 24.8006 19.4987 24.7325C19.6299 24.6645 20.0091 24.4409 20.3396 24.2416C20.6702 24.0423 20.9716 23.8818 21.0056 23.8818C21.0396 23.8818 21.1028 23.9499 21.1514 24.0325C21.4431 24.5235 22.1237 25.1506 22.6049 25.3645C22.9014 25.4909 23.5577 25.6318 23.8737 25.6318C24.1653 25.6318 24.7001 25.5055 24.9869 25.3742C25.2931 25.2332 25.4487 25.0923 25.6334 24.8103C25.7598 24.611 25.7744 24.5575 25.7695 24.1784C25.7695 23.8284 25.7501 23.7311 25.6528 23.5707C25.3806 23.1235 25.0112 22.8902 23.5139 22.2291C21.9681 21.5436 21.273 21.1353 20.7091 20.586C20.291 20.1777 20.2084 20.0659 19.9459 19.5555C19.6056 18.8992 19.5619 18.6853 19.557 17.7082C19.5521 17.0228 19.5667 16.7992 19.6396 16.5659C19.7417 16.2159 20.0723 15.5402 20.223 15.37C20.5341 15.0055 20.6459 14.8936 20.8646 14.7138C21.5257 14.1693 22.5563 13.8096 23.5431 13.7756C23.6549 13.7756 24.0244 13.795 24.3695 13.8193C25.3612 13.902 26.0369 14.145 26.6883 14.6652C27.1792 15.0541 27.923 15.968 27.8501 16.0895C27.8015 16.1624 25.8619 17.4555 25.7355 17.4943C25.6577 17.5186 25.6042 17.4895 25.4973 17.3631C24.8362 16.5707 24.5688 16.4006 23.9271 16.3617C23.4702 16.3325 23.2271 16.386 22.9209 16.5902C22.6001 16.8041 22.4445 17.1298 22.4445 17.5818C22.4494 18.243 22.7021 18.5541 23.6355 19.0159C24.2383 19.3124 24.7535 19.5555 24.7924 19.5555C24.8508 19.5555 26.1001 20.1777 26.4258 20.3721C27.9424 21.2617 28.5598 22.1756 28.7202 23.7506C28.8369 24.9367 28.5015 26.0207 27.7723 26.7888Z" fill="white"/>
</g>
<defs>
<clipPath id="clip0_110_26">
<rect width="32" height="32" fill="white"/>
</clipPath>
</defs>
</svg>
